<?xml version="1.0" encoding="UTF-8"?>
<svg version="1.1" xmlns="http://www.w3.org/2000/svg" width="70" height="65">
<path d="M0 0 C23.1 0 46.2 0 70 0 C70 21.45 70 42.9 70 65 C46.9 65 23.8 65 0 65 C0 43.55 0 22.1 0 0 Z " fill="#090D2B" transform="translate(0,0)"/>
<path d="M0 0 C0.7940625 -0.00322266 1.588125 -0.00644531 2.40625 -0.00976562 C6.67538467 0.02936811 10.16102545 0.23698635 14 2.3125 C16.0625 4.5 16.0625 4.5 18 7.3125 C18.69480469 8.32054687 19.38960937 9.32859375 20.10546875 10.3671875 C22.67170672 14.89657672 22.45107838 19.1650371 22.25 24.25 C22.23195312 25.12462891 22.21390625 25.99925781 22.1953125 26.90039062 C22.14858353 29.03824108 22.07685441 31.17552045 22 33.3125 C21.01 33.3125 20.02 33.3125 19 33.3125 C18.773125 34.01375 18.54625 34.715 18.3125 35.4375 C16.18608593 40.09535938 13.29726065 43.44765957 9 46.3125 C1.72158165 47.71024417 -6.94972568 48.01585544 -13.4765625 44.37109375 C-15.95911437 42.14252053 -18.08357513 40.04180431 -20 37.3125 C-20 36.6525 -20 35.9925 -20 35.3125 C-20.66 35.3125 -21.32 35.3125 -22 35.3125 C-22 34.6525 -22 33.9925 -22 33.3125 C-22.66 33.3125 -23.32 33.3125 -24 33.3125 C-24 26.7125 -24 20.1125 -24 13.3125 C-23.34 13.3125 -22.68 13.3125 -22 13.3125 C-21.79375 12.405 -21.5875 11.4975 -21.375 10.5625 C-19.64562094 6.47487677 -17.81082708 5.47944089 -14 3.3125 C-13.29488281 2.7865625 -12.58976562 2.260625 -11.86328125 1.71875 C-7.86306951 -0.24588332 -4.3934726 -0.08915326 0 0 Z " fill="#0A1030" transform="translate(36,9.6875)"/>
<path d="M0 0 C0.7940625 -0.00322266 1.588125 -0.00644531 2.40625 -0.00976562 C6.67538467 0.02936811 10.16102545 0.23698635 14 2.3125 C16.0625 4.5 16.0625 4.5 18 7.3125 C18.69480469 8.32054687 19.38960937 9.32859375 20.10546875 10.3671875 C22.67170672 14.89657672 22.45107838 19.1650371 22.25 24.25 C22.23195312 25.12462891 22.21390625 25.99925781 22.1953125 26.90039062 C22.14858353 29.03824108 22.07685441 31.17552045 22 33.3125 C21.01 33.3125 20.02 33.3125 19 33.3125 C18.773125 34.01375 18.54625 34.715 18.3125 35.4375 C16.18608593 40.09535938 13.29726065 43.44765957 9 46.3125 C1.72158165 47.71024417 -6.94972568 48.01585544 -13.4765625 44.37109375 C-15.95911437 42.14252053 -18.08357513 40.04180431 -20 37.3125 C-20 36.6525 -20 35.9925 -20 35.3125 C-20.66 35.3125 -21.32 35.3125 -22 35.3125 C-22 34.6525 -22 33.9925 -22 33.3125 C-22.66 33.3125 -23.32 33.3125 -24 33.3125 C-24 26.7125 -24 20.1125 -24 13.3125 C-23.34 13.3125 -22.68 13.3125 -22 13.3125 C-21.79375 12.405 -21.5875 11.4975 -21.375 10.5625 C-19.64562094 6.47487677 -17.81082708 5.47944089 -14 3.3125 C-13.29488281 2.7865625 -12.58976562 2.260625 -11.86328125 1.71875 C-7.86306951 -0.24588332 -4.3934726 -0.08915326 0 0 Z M-15 7.3125 C-15 7.9725 -15 8.6325 -15 9.3125 C-15.66 9.3125 -16.32 9.3125 -17 9.3125 C-21.17905967 15.58108951 -21.88353623 21.92392826 -21 29.3125 C-19.51894239 32.70087017 -19.51894239 32.70087017 -17 35.3125 C-16.52949219 35.84746094 -16.05898438 36.38242187 -15.57421875 36.93359375 C-11.35605177 41.47875042 -7.88752917 43.3600876 -1.625 43.625 C2.9173936 43.51865634 6.04151891 42.53914562 10 40.3125 C10.33 39.3225 10.66 38.3325 11 37.3125 C11.66 37.3125 12.32 37.3125 13 37.3125 C13 36.6525 13 35.9925 13 35.3125 C13.66 35.3125 14.32 35.3125 15 35.3125 C15 34.6525 15 33.9925 15 33.3125 C15.66 33.3125 16.32 33.3125 17 33.3125 C17 31.9925 17 30.6725 17 29.3125 C17.66 29.3125 18.32 29.3125 19 29.3125 C19.50360877 21.82831404 19.19395052 15.71920969 15 9.3125 C11.23687069 5.1066496 7.72038675 3.47340321 2.16015625 3.14453125 C0.62681641 3.13486328 0.62681641 3.13486328 -0.9375 3.125 C-1.95714844 3.11082031 -2.97679688 3.09664062 -4.02734375 3.08203125 C-8.46591373 3.42615166 -11.32360134 4.86156756 -15 7.3125 Z " fill="#1F4F99" transform="translate(36,9.6875)"/>
<path d="M0 0 C0.5625 1.9375 0.5625 1.9375 1 4 C0.67 4.33 0.34 4.66 0 5 C-0.87099526 11.383151 -0.19074076 15.99636148 3.57421875 21.24609375 C7.0026537 25.46353838 9.75032064 28.39573236 15 30 C17.80993945 30.13760722 20.51001924 30.19011573 23.3125 30.125 C24.42334961 30.11146484 24.42334961 30.11146484 25.55664062 30.09765625 C27.37123467 30.07424213 29.18566071 30.03837615 31 30 C30.67 30.66 30.34 31.32 30 32 C24.00758062 33.99747313 15.68658395 34.15692797 9.59765625 32.24609375 C6.28631913 30.39841111 3.42146254 27.90575505 1 25 C1 24.34 1 23.68 1 23 C0.34 23 -0.32 23 -1 23 C-2.21697475 19.18356718 -2.1679001 15.48269899 -2.1875 11.5 C-2.20167969 10.1903125 -2.21585938 8.880625 -2.23046875 7.53125 C-2.02146658 4.32891168 -1.70931164 2.64841962 0 0 Z " fill="#245FB3" transform="translate(15,22)"/>
<path d="M0 0 C0.66 0.33 1.32 0.66 2 1 C1.49572053 5.41244536 -0.01327751 7.74974317 -3 11 C-6.15314785 13.10209857 -6.86103081 13.2434761 -10.44921875 13.1953125 C-11.72055664 13.18564453 -11.72055664 13.18564453 -13.01757812 13.17578125 C-13.89865234 13.15902344 -14.77972656 13.14226563 -15.6875 13.125 C-16.58017578 13.11597656 -17.47285156 13.10695313 -18.39257812 13.09765625 C-20.59532314 13.07409748 -22.79752588 13.04120329 -25 13 C-25.33 12.34 -25.66 11.68 -26 11 C-24.21142578 11.01740234 -24.21142578 11.01740234 -22.38671875 11.03515625 C-20.82031406 11.04453592 -19.25390769 11.05363593 -17.6875 11.0625 C-16.50897461 11.07506836 -16.50897461 11.07506836 -15.30664062 11.08789062 C-14.1706543 11.09272461 -14.1706543 11.09272461 -13.01171875 11.09765625 C-11.96697388 11.10551147 -11.96697388 11.10551147 -10.90112305 11.11352539 C-8.77502032 11.06895991 -8.77502032 11.06895991 -6 10 C-6.99 9.34 -7.98 8.68 -9 8 C-8.0409375 7.566875 -8.0409375 7.566875 -7.0625 7.125 C-4.84793921 6.17176549 -4.84793921 6.17176549 -4 4 C-3.34 4 -2.68 4 -2 4 C-2 3.34 -2 2.68 -2 2 C-1.34 2 -0.68 2 0 2 C0 1.34 0 0.68 0 0 Z " fill="#1C478B" transform="translate(51,43)"/>
<path d="M0 0 C4.29 0.33 8.58 0.66 13 1 C13 2.32 13 3.64 13 5 C6.565 5.495 6.565 5.495 0 6 C0 4.02 0 2.04 0 0 Z " fill="#112756" transform="translate(33,30)"/>
<path d="M0 0 C0.66 0.33 1.32 0.66 2 1 C1.52328556 3.7013818 0.93934105 6.16681211 0 8.75 C-1.24924568 12.81004846 -1.64371576 16.78084457 -2 21 C-2.33 21 -2.66 21 -3 21 C-3 17.33333333 -3 13.66666667 -3 10 C-3 15.61 -3 21.22 -3 27 C-3.66 27 -4.32 27 -5 27 C-5 20.4 -5 13.8 -5 7 C-4.34 7 -3.68 7 -3 7 C-2.690625 6.030625 -2.38125 5.06125 -2.0625 4.0625 C-1 1 -1 1 0 0 Z " fill="#1D488D" transform="translate(17,16)"/>
<path d="M0 0 C0.33 0.99 0.66 1.98 1 3 C-0.62339805 4.70884005 -2.29319053 6.37446717 -4 8 C-4.66 8 -5.32 8 -6 8 C-6.94351599 15.53537771 -7.07726572 21.66847392 -5 29 C-8.45589536 25.69436096 -9.18453212 23.72619265 -9.3125 18.9375 C-9.28974816 13.18886932 -7.75654156 8.98392559 -5 4 C-4.34 4 -3.68 4 -3 4 C-3 3.34 -3 2.68 -3 2 C-2.01 1.34 -1.02 0.68 0 0 Z " fill="#0F214D" transform="translate(24,15)"/>
<path d="M0 0 C1.13598633 0.00483398 1.13598633 0.00483398 2.29492188 0.00976562 C3.47344727 0.02233398 3.47344727 0.02233398 4.67578125 0.03515625 C5.47306641 0.03966797 6.27035156 0.04417969 7.09179688 0.04882812 C9.05732382 0.06059775 11.0228121 0.07853277 12.98828125 0.09765625 C12.98828125 0.42765625 12.98828125 0.75765625 12.98828125 1.09765625 C12.20324219 1.13503906 11.41820313 1.17242187 10.609375 1.2109375 C4.36935863 1.60141705 -0.44179252 2.2534386 -6.01171875 5.09765625 C-7.00171875 5.42765625 -7.99171875 5.75765625 -9.01171875 6.09765625 C-9.01171875 6.75765625 -9.01171875 7.41765625 -9.01171875 8.09765625 C-9.67171875 8.09765625 -10.33171875 8.09765625 -11.01171875 8.09765625 C-11.01171875 8.75765625 -11.01171875 9.41765625 -11.01171875 10.09765625 C-11.67171875 10.09765625 -12.33171875 10.09765625 -13.01171875 10.09765625 C-12.53867193 5.84023488 -10.12533655 3.84060527 -7.01171875 1.09765625 C-4.30455633 0.19526878 -2.77395107 -0.02085677 0 0 Z " fill="#2664BC" transform="translate(30.01171875,10.90234375)"/>
<path d="M0 0 C2.89608593 -0.05413245 5.79115195 -0.09373641 8.6875 -0.125 C9.91243164 -0.15013672 9.91243164 -0.15013672 11.16210938 -0.17578125 C15.52679131 -0.2111228 19.0906415 -0.19161007 23 2 C25.3125 4.625 25.3125 4.625 27 7 C26.67 7.66 26.34 8.32 26 9 C25.02740234 7.78183594 25.02740234 7.78183594 24.03515625 6.5390625 C20.05853872 3.21241978 17.44974222 3.32337175 12.4375 3.375 C4.62211538 3.375 4.62211538 3.375 1.47265625 1.4765625 C0.98667969 0.98929688 0.50070313 0.50203125 0 0 Z " fill="#1D498E" transform="translate(27,10)"/>
<path d="M0 0 C4.56167877 0.26833405 6.82493192 2.17492791 9.83984375 5.3671875 C11 7 11 7 11.375 9.875 C11.25125 10.57625 11.1275 11.2775 11 12 C11.66 12 12.32 12 13 12 C13 16.29 13 20.58 13 25 C12.67 25 12.34 25 12 25 C11.99742188 24.31035156 11.99484375 23.62070312 11.9921875 22.91015625 C11.61873153 13.83517625 8.39840281 8.33637087 2.125 1.9375 C1.42375 1.298125 0.7225 0.65875 0 0 Z " fill="#286AC5" transform="translate(44,13)"/>
<path d="M0 0 C0 1.65 0 3.3 0 5 C-1.65 5 -3.3 5 -5 5 C-5.33 3.68 -5.66 2.36 -6 1 C-4 0 -4 0 0 0 Z " fill="#2563BA" transform="translate(29,30)"/>
<path d="M0 0 C5 2 5 2 10 4 C10 4.33 10 4.66 10 5 C4.6440678 6.33898305 4.6440678 6.33898305 1.625 4.75 C0 3 0 3 0 0 Z " fill="#2259AA" transform="translate(19,47)"/>
<path d="M0 0 C3.67420866 0.30618405 4.78135513 0.75771784 7.3125 3.5625 C8.1478125 4.7690625 8.1478125 4.7690625 9 6 C8.34 6.66 7.68 7.32 7 8 C4.35247996 5.42215154 2.05567935 3.08351902 0 0 Z " fill="#2561B6" transform="translate(44,13)"/>
<path d="M0 0 C1.2065625 0.0309375 1.2065625 0.0309375 2.4375 0.0625 C2.1075 0.7225 1.7775 1.3825 1.4375 2.0625 C-1.84769475 3.15756492 -4.29913415 3.16210608 -7.75 3.125 C-9.38001953 3.11146484 -9.38001953 3.11146484 -11.04296875 3.09765625 C-11.87441406 3.08605469 -12.70585937 3.07445312 -13.5625 3.0625 C-13.5625 2.7325 -13.5625 2.4025 -13.5625 2.0625 C-12.85222656 2.00191406 -12.14195313 1.94132812 -11.41015625 1.87890625 C-10.03150391 1.75322266 -10.03150391 1.75322266 -8.625 1.625 C-7.70847656 1.54378906 -6.79195312 1.46257813 -5.84765625 1.37890625 C-3.0392385 0.99004841 -2.92897185 0.07143834 0 0 Z " fill="#286BC8" transform="translate(43.5625,51.9375)"/>
<path d="M0 0 C1.65 0 3.3 0 5 0 C5 1.32 5 2.64 5 4 C3.35 4 1.7 4 0 4 C0 2.68 0 1.36 0 0 Z " fill="#296DCB" transform="translate(41,31)"/>
<path d="M0 0 C1.32 0 2.64 0 4 0 C4 1.65 4 3.3 4 5 C2.68 5 1.36 5 0 5 C0 3.35 0 1.7 0 0 Z " fill="#2768C3" transform="translate(33,30)"/>
<path d="M0 0 C1.32 0 2.64 0 4 0 C4 1.65 4 3.3 4 5 C2.68 5 1.36 5 0 5 C0 3.35 0 1.7 0 0 Z " fill="#112656" transform="translate(29,30)"/>
</svg>
