<?xml version="1.0" encoding="UTF-8"?>
<svg version="1.1" xmlns="http://www.w3.org/2000/svg" width="500" height="250">
<path d="M0 0 C3.7830511 2.4688266 6.7459327 2.93713371 11.20727158 2.93999195 C12.09363446 2.9429996 12.97999734 2.94600725 13.89321971 2.94910604 C14.86284624 2.94735567 15.83247278 2.94560529 16.83148193 2.94380188 C17.86491643 2.94591759 18.89835093 2.94803331 19.96310163 2.95021313 C23.43732571 2.95622002 26.91151353 2.95521246 30.38574219 2.9543457 C32.87265586 2.95737689 35.35956898 2.96089823 37.84648132 2.96487427 C43.20971533 2.97276915 48.57294206 2.97793111 53.93618011 2.98116493 C62.42616264 2.98666946 70.91610515 3.00357721 79.40606689 3.02250671 C82.31341164 3.02886374 85.2207565 3.03517222 88.12810135 3.04148388 C89.21808162 3.04385952 89.21808162 3.04385952 90.33008169 3.04628316 C98.60270131 3.06422123 106.87532378 3.08044443 115.14794922 3.09545898 C115.90409701 3.09683486 116.66024481 3.09821073 117.43930617 3.09962829 C129.66614222 3.12151237 141.89296793 3.13230316 154.11982009 3.13982973 C166.69032808 3.14792403 179.26074796 3.17129225 191.83120561 3.2077834 C199.57333169 3.22971791 207.31527612 3.23950094 215.05743167 3.23328307 C221.00783663 3.22970881 226.95806871 3.24709566 232.90842628 3.27196121 C235.3366608 3.2788439 237.76492571 3.27903133 240.1931591 3.27176094 C256.35265489 3.22829259 271.64863919 3.75078817 286.21484375 11.625 C287.20774414 12.14211548 287.20774414 12.14211548 288.22070312 12.66967773 C293.54402488 15.51744591 298.22801646 18.84101065 302.77734375 22.8125 C303.43734375 23.31910156 304.09734375 23.82570312 304.77734375 24.34765625 C318.939785 35.6056906 327.03319109 54.19729277 329.28125 71.74609375 C331.21213714 91.49119407 326.33021437 111.70258765 313.74609375 127.3359375 C303.54817321 139.00609305 293.00549708 147.75388338 278.40234375 153.0625 C277.73130615 153.30895264 277.06026855 153.55540527 276.36889648 153.80932617 C266.69146881 157.1395032 256.81394247 158.1155758 246.63381958 158.03713989 C245.57988789 158.03728777 244.52595621 158.03743564 243.4400872 158.037588 C239.94451358 158.0358745 236.44914991 158.02006756 232.95361328 158.00439453 C230.43272019 158.00059208 227.91182543 157.99778549 225.39093018 157.99589539 C219.97924552 157.99046746 214.56761437 157.97954623 209.15594864 157.96463394 C200.59026825 157.94181033 192.02465758 157.94217647 183.45895386 157.94650269 C180.52089884 157.94773461 177.58284379 157.94886912 174.64478874 157.9500103 C173.91074278 157.95030803 173.17669682 157.95060576 172.42040703 157.95091251 C164.08414435 157.95410891 155.7478839 157.95386515 147.41162109 157.95117188 C146.26994072 157.95081357 146.26994072 157.95081357 145.1051961 157.95044802 C132.77075841 157.94584251 120.43644999 157.91883261 108.10206152 157.88535406 C95.40698476 157.85161451 82.71214104 157.84859636 70.01704109 157.87209976 C62.20348587 157.88547659 54.39075853 157.87434146 46.57730864 157.83097069 C40.58225184 157.800111 34.58801138 157.81136791 28.59290314 157.83782387 C26.14444528 157.84203101 23.69591863 157.83268966 21.24757767 157.80839729 C7.0126349 157.67577235 -2.54384191 158.32524181 -14.22265625 166.8125 C-16.81636098 168.03761724 -19.28012696 168.84027438 -22.03515625 169.6875 C-23.19660156 170.05617187 -24.35804688 170.42484375 -25.5546875 170.8046875 C-27.37033203 171.30355469 -27.37033203 171.30355469 -29.22265625 171.8125 C-29.86243408 171.99796387 -30.50221191 172.18342773 -31.16137695 172.37451172 C-38.29932002 174.23470797 -45.44584257 174.19711003 -52.78515625 174.1875 C-53.45117859 174.18728851 -54.11720093 174.18707703 -54.80340576 174.18685913 C-65.17787088 174.15395254 -74.43177949 173.38993574 -84.22265625 169.8125 C-85.25390625 169.461875 -86.28515625 169.11125 -87.34765625 168.75 C-99.937885 164.02866422 -110.64998503 156.1269157 -120.22265625 146.8125 C-120.856875 146.22855469 -121.49109375 145.64460937 -122.14453125 145.04296875 C-138.55587143 129.53933544 -147.45184313 105.79063911 -148.4453125 83.58984375 C-149.24122499 55.31027086 -139.5888173 31.34705689 -120.22265625 10.8125 C-87.38732674 -20.06543282 -37.64748904 -25.55465923 0 0 Z " fill="#FCFDFD" transform="translate(159.22265625,46.1875)"/>
<path d="M0 0 C3.7830511 2.4688266 6.7459327 2.93713371 11.20727158 2.93999195 C12.09363446 2.9429996 12.97999734 2.94600725 13.89321971 2.94910604 C14.86284624 2.94735567 15.83247278 2.94560529 16.83148193 2.94380188 C17.86491643 2.94591759 18.89835093 2.94803331 19.96310163 2.95021313 C23.43732571 2.95622002 26.91151353 2.95521246 30.38574219 2.9543457 C32.87265586 2.95737689 35.35956898 2.96089823 37.84648132 2.96487427 C43.20971533 2.97276915 48.57294206 2.97793111 53.93618011 2.98116493 C62.42616264 2.98666946 70.91610515 3.00357721 79.40606689 3.02250671 C82.31341164 3.02886374 85.2207565 3.03517222 88.12810135 3.04148388 C89.21808162 3.04385952 89.21808162 3.04385952 90.33008169 3.04628316 C98.60270131 3.06422123 106.87532378 3.08044443 115.14794922 3.09545898 C115.90409701 3.09683486 116.66024481 3.09821073 117.43930617 3.09962829 C129.66614222 3.12151237 141.89296793 3.13230316 154.11982009 3.13982973 C166.69032808 3.14792403 179.26074796 3.17129225 191.83120561 3.2077834 C199.57333169 3.22971791 207.31527612 3.23950094 215.05743167 3.23328307 C221.00783663 3.22970881 226.95806871 3.24709566 232.90842628 3.27196121 C235.3366608 3.2788439 237.76492571 3.27903133 240.1931591 3.27176094 C256.35265489 3.22829259 271.64863919 3.75078817 286.21484375 11.625 C287.20774414 12.14211548 287.20774414 12.14211548 288.22070312 12.66967773 C293.54402488 15.51744591 298.22801646 18.84101065 302.77734375 22.8125 C303.43734375 23.31910156 304.09734375 23.82570312 304.77734375 24.34765625 C318.939785 35.6056906 327.03319109 54.19729277 329.28125 71.74609375 C331.21213714 91.49119407 326.33021437 111.70258765 313.74609375 127.3359375 C303.54817321 139.00609305 293.00549708 147.75388338 278.40234375 153.0625 C277.73130615 153.30895264 277.06026855 153.55540527 276.36889648 153.80932617 C266.69146881 157.1395032 256.81394247 158.1155758 246.63381958 158.03713989 C245.57988789 158.03728777 244.52595621 158.03743564 243.4400872 158.037588 C239.94451358 158.0358745 236.44914991 158.02006756 232.95361328 158.00439453 C230.43272019 158.00059208 227.91182543 157.99778549 225.39093018 157.99589539 C219.97924552 157.99046746 214.56761437 157.97954623 209.15594864 157.96463394 C200.59026825 157.94181033 192.02465758 157.94217647 183.45895386 157.94650269 C180.52089884 157.94773461 177.58284379 157.94886912 174.64478874 157.9500103 C173.91074278 157.95030803 173.17669682 157.95060576 172.42040703 157.95091251 C164.08414435 157.95410891 155.7478839 157.95386515 147.41162109 157.95117188 C146.26994072 157.95081357 146.26994072 157.95081357 145.1051961 157.95044802 C132.77075841 157.94584251 120.43644999 157.91883261 108.10206152 157.88535406 C95.40698476 157.85161451 82.71214104 157.84859636 70.01704109 157.87209976 C62.20348587 157.88547659 54.39075853 157.87434146 46.57730864 157.83097069 C40.58225184 157.800111 34.58801138 157.81136791 28.59290314 157.83782387 C26.14444528 157.84203101 23.69591863 157.83268966 21.24757767 157.80839729 C7.0126349 157.67577235 -2.54384191 158.32524181 -14.22265625 166.8125 C-16.81636098 168.03761724 -19.28012696 168.84027438 -22.03515625 169.6875 C-23.19660156 170.05617187 -24.35804688 170.42484375 -25.5546875 170.8046875 C-27.37033203 171.30355469 -27.37033203 171.30355469 -29.22265625 171.8125 C-29.86243408 171.99796387 -30.50221191 172.18342773 -31.16137695 172.37451172 C-38.29932002 174.23470797 -45.44584257 174.19711003 -52.78515625 174.1875 C-53.45117859 174.18728851 -54.11720093 174.18707703 -54.80340576 174.18685913 C-65.17787088 174.15395254 -74.43177949 173.38993574 -84.22265625 169.8125 C-85.25390625 169.461875 -86.28515625 169.11125 -87.34765625 168.75 C-99.937885 164.02866422 -110.64998503 156.1269157 -120.22265625 146.8125 C-120.856875 146.22855469 -121.49109375 145.64460937 -122.14453125 145.04296875 C-138.55587143 129.53933544 -147.45184313 105.79063911 -148.4453125 83.58984375 C-149.24122499 55.31027086 -139.5888173 31.34705689 -120.22265625 10.8125 C-87.38732674 -20.06543282 -37.64748904 -25.55465923 0 0 Z M11.77734375 8.8125 C12.18409332 9.28554565 12.5908429 9.75859131 13.00991821 10.24597168 C13.54627899 10.87056274 14.08263977 11.49515381 14.63525391 12.13867188 C15.16575348 12.75609253 15.69625305 13.37351318 16.24282837 14.00964355 C36.31039155 37.58642622 42.35473745 62.11060261 40.77734375 92.8125 C38.59107787 113.69847647 27.6186277 132.2060579 13.3515625 147.0625 C10.71492277 149.72884104 10.71492277 149.72884104 8.77734375 152.8125 C40.38754949 152.88103178 71.99773397 152.93407744 103.60799671 152.96569599 C107.34527267 152.96944782 111.08254848 152.97333082 114.81982422 152.97729492 C115.93579624 152.97847532 115.93579624 152.97847532 117.07431315 152.97967956 C129.09908395 152.99271084 141.12381144 153.01635204 153.1485566 153.04395839 C165.49965704 153.07207615 177.8507349 153.08868969 190.20186603 153.09476548 C197.81475521 153.09886876 205.42752196 153.11179847 213.04037343 153.1362494 C218.89141872 153.15407721 224.74240219 153.15584962 230.59347534 153.15182304 C232.98386257 153.15264478 235.37425466 153.15856392 237.76461411 153.17011642 C252.86506027 153.23948392 267.05663478 153.04750816 281.02734375 146.5625 C282.02664917 146.11233521 282.02664917 146.11233521 283.04614258 145.65307617 C288.75281487 142.99770123 293.84389551 139.72460591 298.77734375 135.8125 C299.57914062 135.21695313 300.3809375 134.62140625 301.20703125 134.0078125 C315.8933045 121.46421742 323.45008428 102.80009287 325.125 83.88671875 C325.58766619 64.51508646 319.25966769 47.5291814 306.77734375 32.8125 C306.16246094 32.08417969 305.54757812 31.35585937 304.9140625 30.60546875 C293.53162894 18.24809441 276.06454267 9.87236717 259.30997169 8.62946296 C256.60606797 8.56245134 253.90877364 8.55534406 251.2040863 8.57199097 C249.66121943 8.56942769 249.66121943 8.56942769 248.08718354 8.56681263 C244.66018236 8.5635333 241.23337945 8.57449581 237.80639648 8.58544922 C235.34204615 8.58601367 232.87769548 8.58569611 230.41334534 8.58456421 C225.11780208 8.58410961 219.82231987 8.58976149 214.52679253 8.60103989 C206.87048126 8.61733561 199.21419379 8.62250705 191.55786706 8.62501587 C179.13418623 8.6293866 166.71053176 8.64267878 154.28686523 8.66162109 C142.22273897 8.67999602 130.15861987 8.69414462 118.09448242 8.70263672 C117.35009804 8.70316217 116.60571366 8.70368761 115.83877217 8.70422898 C112.10419011 8.70683917 108.369608 8.70936656 104.63502586 8.71185279 C73.682446 8.73256591 42.72989889 8.76792376 11.77734375 8.8125 Z " fill="#FAFDFD" transform="translate(159.22265625,46.1875)"/>
<path d="M0 0 C3.7830511 2.4688266 6.7459327 2.93713371 11.20727158 2.93999195 C12.09363446 2.9429996 12.97999734 2.94600725 13.89321971 2.94910604 C14.86284624 2.94735567 15.83247278 2.94560529 16.83148193 2.94380188 C17.86491643 2.94591759 18.89835093 2.94803331 19.96310163 2.95021313 C23.43732571 2.95622002 26.91151353 2.95521246 30.38574219 2.9543457 C32.87265586 2.95737689 35.35956898 2.96089823 37.84648132 2.96487427 C43.20971533 2.97276915 48.57294206 2.97793111 53.93618011 2.98116493 C62.42616264 2.98666946 70.91610515 3.00357721 79.40606689 3.02250671 C82.31341164 3.02886374 85.2207565 3.03517222 88.12810135 3.04148388 C89.21808162 3.04385952 89.21808162 3.04385952 90.33008169 3.04628316 C98.60270131 3.06422123 106.87532378 3.08044443 115.14794922 3.09545898 C115.90409701 3.09683486 116.66024481 3.09821073 117.43930617 3.09962829 C129.66614222 3.12151237 141.89296793 3.13230316 154.11982009 3.13982973 C166.69032808 3.14792403 179.26074796 3.17129225 191.83120561 3.2077834 C199.57333169 3.22971791 207.31527612 3.23950094 215.05743167 3.23328307 C221.00783663 3.22970881 226.95806871 3.24709566 232.90842628 3.27196121 C235.3366608 3.2788439 237.76492571 3.27903133 240.1931591 3.27176094 C256.35265489 3.22829259 271.64863919 3.75078817 286.21484375 11.625 C287.20774414 12.14211548 287.20774414 12.14211548 288.22070312 12.66967773 C293.54402488 15.51744591 298.22801646 18.84101065 302.77734375 22.8125 C303.43734375 23.31910156 304.09734375 23.82570312 304.77734375 24.34765625 C318.939785 35.6056906 327.03319109 54.19729277 329.28125 71.74609375 C331.21213714 91.49119407 326.33021437 111.70258765 313.74609375 127.3359375 C303.54817321 139.00609305 293.00549708 147.75388338 278.40234375 153.0625 C277.73130615 153.30895264 277.06026855 153.55540527 276.36889648 153.80932617 C266.69146881 157.1395032 256.81394247 158.1155758 246.63381958 158.03713989 C245.57988789 158.03728777 244.52595621 158.03743564 243.4400872 158.037588 C239.94451358 158.0358745 236.44914991 158.02006756 232.95361328 158.00439453 C230.43272019 158.00059208 227.91182543 157.99778549 225.39093018 157.99589539 C219.97924552 157.99046746 214.56761437 157.97954623 209.15594864 157.96463394 C200.59026825 157.94181033 192.02465758 157.94217647 183.45895386 157.94650269 C180.52089884 157.94773461 177.58284379 157.94886912 174.64478874 157.9500103 C173.91074278 157.95030803 173.17669682 157.95060576 172.42040703 157.95091251 C164.08414435 157.95410891 155.7478839 157.95386515 147.41162109 157.95117188 C146.26994072 157.95081357 146.26994072 157.95081357 145.1051961 157.95044802 C132.77075841 157.94584251 120.43644999 157.91883261 108.10206152 157.88535406 C95.40698476 157.85161451 82.71214104 157.84859636 70.01704109 157.87209976 C62.20348587 157.88547659 54.39075853 157.87434146 46.57730864 157.83097069 C40.58225184 157.800111 34.58801138 157.81136791 28.59290314 157.83782387 C26.14444528 157.84203101 23.69591863 157.83268966 21.24757767 157.80839729 C7.0126349 157.67577235 -2.54384191 158.32524181 -14.22265625 166.8125 C-16.81636098 168.03761724 -19.28012696 168.84027438 -22.03515625 169.6875 C-23.19660156 170.05617187 -24.35804688 170.42484375 -25.5546875 170.8046875 C-27.37033203 171.30355469 -27.37033203 171.30355469 -29.22265625 171.8125 C-29.86243408 171.99796387 -30.50221191 172.18342773 -31.16137695 172.37451172 C-38.29932002 174.23470797 -45.44584257 174.19711003 -52.78515625 174.1875 C-53.45117859 174.18728851 -54.11720093 174.18707703 -54.80340576 174.18685913 C-65.17787088 174.15395254 -74.43177949 173.38993574 -84.22265625 169.8125 C-85.25390625 169.461875 -86.28515625 169.11125 -87.34765625 168.75 C-99.937885 164.02866422 -110.64998503 156.1269157 -120.22265625 146.8125 C-120.856875 146.22855469 -121.49109375 145.64460937 -122.14453125 145.04296875 C-138.55587143 129.53933544 -147.45184313 105.79063911 -148.4453125 83.58984375 C-149.24122499 55.31027086 -139.5888173 31.34705689 -120.22265625 10.8125 C-87.38732674 -20.06543282 -37.64748904 -25.55465923 0 0 Z M-114.22265625 11.8125 C-115.07214844 12.57046875 -115.92164062 13.3284375 -116.796875 14.109375 C-133.22840954 29.50922054 -142.56262559 51.28839958 -143.4609375 73.65234375 C-144.03170607 99.89490042 -136.60440113 121.99179717 -118.58984375 141.37109375 C-102.01941412 158.4610583 -80.95468457 168.83627561 -56.94677734 169.24462891 C-30.71141609 169.28246672 -7.852328 162.29924957 11.22363281 143.421875 C29.79288492 124.18735113 37.56700802 101.487788 37.3034668 74.96386719 C37.03329088 65.71334754 35.89865116 57.53983979 32.77734375 48.8125 C32.42671875 47.77867188 32.07609375 46.74484375 31.71484375 45.6796875 C27.96513955 35.70651592 21.83654685 25.79701091 14.77734375 17.8125 C14.11734375 17.8125 13.45734375 17.8125 12.77734375 17.8125 C12.55046875 17.24273437 12.32359375 16.67296875 12.08984375 16.0859375 C4.47809464 2.90130066 -17.02427454 -5.66100786 -30.90625 -9.64453125 C-60.9992745 -16.69837679 -91.65250236 -9.08710706 -114.22265625 11.8125 Z M11.77734375 8.8125 C12.18409332 9.28554565 12.5908429 9.75859131 13.00991821 10.24597168 C13.54627899 10.87056274 14.08263977 11.49515381 14.63525391 12.13867188 C15.16575348 12.75609253 15.69625305 13.37351318 16.24282837 14.00964355 C36.31039155 37.58642622 42.35473745 62.11060261 40.77734375 92.8125 C38.59107787 113.69847647 27.6186277 132.2060579 13.3515625 147.0625 C10.71492277 149.72884104 10.71492277 149.72884104 8.77734375 152.8125 C40.38754949 152.88103178 71.99773397 152.93407744 103.60799671 152.96569599 C107.34527267 152.96944782 111.08254848 152.97333082 114.81982422 152.97729492 C115.93579624 152.97847532 115.93579624 152.97847532 117.07431315 152.97967956 C129.09908395 152.99271084 141.12381144 153.01635204 153.1485566 153.04395839 C165.49965704 153.07207615 177.8507349 153.08868969 190.20186603 153.09476548 C197.81475521 153.09886876 205.42752196 153.11179847 213.04037343 153.1362494 C218.89141872 153.15407721 224.74240219 153.15584962 230.59347534 153.15182304 C232.98386257 153.15264478 235.37425466 153.15856392 237.76461411 153.17011642 C252.86506027 153.23948392 267.05663478 153.04750816 281.02734375 146.5625 C282.02664917 146.11233521 282.02664917 146.11233521 283.04614258 145.65307617 C288.75281487 142.99770123 293.84389551 139.72460591 298.77734375 135.8125 C299.57914062 135.21695313 300.3809375 134.62140625 301.20703125 134.0078125 C315.8933045 121.46421742 323.45008428 102.80009287 325.125 83.88671875 C325.58766619 64.51508646 319.25966769 47.5291814 306.77734375 32.8125 C306.16246094 32.08417969 305.54757812 31.35585937 304.9140625 30.60546875 C293.53162894 18.24809441 276.06454267 9.87236717 259.30997169 8.62946296 C256.60606797 8.56245134 253.90877364 8.55534406 251.2040863 8.57199097 C249.66121943 8.56942769 249.66121943 8.56942769 248.08718354 8.56681263 C244.66018236 8.5635333 241.23337945 8.57449581 237.80639648 8.58544922 C235.34204615 8.58601367 232.87769548 8.58569611 230.41334534 8.58456421 C225.11780208 8.58410961 219.82231987 8.58976149 214.52679253 8.60103989 C206.87048126 8.61733561 199.21419379 8.62250705 191.55786706 8.62501587 C179.13418623 8.6293866 166.71053176 8.64267878 154.28686523 8.66162109 C142.22273897 8.67999602 130.15861987 8.69414462 118.09448242 8.70263672 C117.35009804 8.70316217 116.60571366 8.70368761 115.83877217 8.70422898 C112.10419011 8.70683917 108.369608 8.70936656 104.63502586 8.71185279 C73.682446 8.73256591 42.72989889 8.76792376 11.77734375 8.8125 Z " fill="#47827F" transform="translate(159.22265625,46.1875)"/>
<path d="M0 0 C8.89139767 4.74663845 14.54183235 10.71764232 18.16622925 20.11383057 C19.66407008 25.29873589 19.58982913 30.44148928 19.56640625 35.8046875 C19.57570412 37.60524094 19.57570412 37.60524094 19.58518982 39.44216919 C19.59225904 41.96843663 19.58916505 44.49475094 19.57641602 47.02099609 C19.5625638 50.85733009 19.59665513 54.69121555 19.63476562 58.52734375 C19.63571713 60.99479226 19.63385631 63.46224378 19.62890625 65.9296875 C19.64216446 67.06131317 19.65542267 68.19293884 19.66908264 69.3588562 C19.55866892 78.94369033 17.28334769 87.82106943 10.625 95 C1.24423792 103.36552809 -9.52299796 106.32992778 -21.8359375 106.21875 C-27.92994446 105.79743594 -32.7141013 103.39868551 -37 99 C-40.45371284 93.72904431 -42.89792572 88.55740229 -42.48046875 82.16015625 C-40.9314703 75.19595995 -35.81509445 69.81317669 -30 66 C-19.75172788 60.23679935 -9.076988 55.88872983 2 52 C2 51.34 2 50.68 2 50 C0.79085937 49.57589844 -0.41828125 49.15179688 -1.6640625 48.71484375 C-33.54847333 37.36981146 -33.54847333 37.36981146 -41 24.5625 C-42.58085139 18.93071693 -42.8669187 14.25398863 -40.75 8.75 C-40.1725 7.8425 -39.595 6.935 -39 6 C-38.484375 5.154375 -37.96875 4.30875 -37.4375 3.4375 C-26.92053223 -7.07946777 -12.70965042 -5.74960376 0 0 Z " fill="#031F38" transform="translate(143,92)"/>
<path d="M0 0 C4.82965066 3.31749167 7.7834249 8.58000259 9 14.27734375 C9.38836996 21.66779569 6.59400365 26.09669413 1.859375 31.484375 C-7.80523009 40.98016603 -24.58995992 46.71451866 -37.5546875 49.6796875 C-37.5546875 50.3396875 -37.5546875 50.9996875 -37.5546875 51.6796875 C-36.79671875 51.92332031 -36.03875 52.16695312 -35.2578125 52.41796875 C-30.23211983 54.13030918 -25.26701203 55.97997141 -20.3046875 57.8671875 C-19.31855469 58.22876953 -18.33242187 58.59035156 -17.31640625 58.96289062 C-7.28902551 62.80077482 2.00225859 68.05850606 7.54296875 77.5625 C9.54559734 82.26130822 9.28143779 87.45808189 7.5 92.19140625 C4.08723773 98.68424013 0.03176494 102.71396035 -7.0625 105.13671875 C-17.54689195 107.42093581 -27.60317381 105.83094479 -36.765625 100.359375 C-44.83339416 94.70266329 -50.27734895 88.33426813 -52.5546875 78.6796875 C-52.98200286 74.33288678 -52.99921462 70.01383377 -52.98828125 65.6484375 C-52.99614403 63.80179504 -52.99614403 63.80179504 -53.00416565 61.91784668 C-53.01056307 59.32593538 -53.00927858 56.73399495 -53.00073242 54.14208984 C-52.99221374 50.19185441 -53.02103337 46.24306201 -53.05273438 42.29296875 C-53.05434646 39.76562543 -53.05376873 37.23827957 -53.05078125 34.7109375 C-53.06201523 33.53881714 -53.07324921 32.36669678 -53.08482361 31.15905762 C-52.99872561 20.95817838 -50.39071078 13.89254168 -43.38671875 6.4609375 C-31.43450535 -5.15997787 -14.72699753 -7.61120056 0 0 Z " fill="#021E37" transform="translate(95.5546875,58.3203125)"/>
<path d="M0 0 C3.77372685 2.46274157 6.73248065 2.93674057 11.18276596 2.94278526 C12.06361225 2.94640961 12.94445854 2.95003396 13.85199714 2.95376813 C14.81540778 2.95269988 15.77881843 2.95163163 16.77142334 2.95053101 C17.79825171 2.95335229 18.82508008 2.95617357 19.88302445 2.95908034 C23.33445878 2.96743398 26.78586107 2.96876525 30.23730469 2.97021484 C32.70764252 2.97488249 35.1779795 2.98002597 37.64831543 2.98561096 C42.97391474 2.9968973 48.29950779 3.00537942 53.62511444 3.01173019 C62.04569075 3.02206174 70.46622767 3.042627 78.88677979 3.06484985 C81.76850497 3.07232949 84.65023032 3.07974325 87.53195572 3.08713722 C88.61222355 3.08991307 88.61222355 3.08991307 89.71431498 3.092745 C97.91142751 3.11367013 106.10854439 3.13249902 114.30566406 3.15039062 C115.42957571 3.1528479 115.42957571 3.1528479 116.57619265 3.15535481 C128.71466403 3.18163212 140.85313846 3.2002802 152.99162623 3.21698253 C165.45812403 3.23441304 177.92456224 3.26326859 190.39101243 3.3018719 C198.07785442 3.32524956 205.76459926 3.33926445 213.45147708 3.34119953 C219.34520081 3.34356137 225.23881309 3.36144834 231.13249207 3.38506889 C233.54796117 3.39226607 235.9634517 3.39436084 238.37892914 3.39096642 C241.67793882 3.38707107 244.97638354 3.4015292 248.27532959 3.42050171 C249.22981735 3.41497201 250.18430511 3.40944232 251.16771674 3.40374506 C257.04186021 3.46200583 261.3934277 4.43664421 266.77734375 6.8125 C266.77734375 7.1425 266.77734375 7.4725 266.77734375 7.8125 C182.62734375 8.1425 98.47734375 8.4725 11.77734375 8.8125 C14.74734375 11.7825 17.71734375 14.7525 20.77734375 17.8125 C28.43889195 27.75907134 35.70817243 39.53581471 38.77734375 51.8125 C38.44734375 52.8025 38.11734375 53.7925 37.77734375 54.8125 C37.77734375 54.1525 37.77734375 53.4925 37.77734375 52.8125 C36.45734375 53.1425 35.13734375 53.4725 33.77734375 53.8125 C33.41382813 52.84570312 33.0503125 51.87890625 32.67578125 50.8828125 C28.6734371 40.43717843 23.97767044 31.30582411 16.9765625 22.50390625 C15.77734375 20.8125 15.77734375 20.8125 14.77734375 17.8125 C14.11734375 17.8125 13.45734375 17.8125 12.77734375 17.8125 C11.6085871 16.67811855 10.44588017 15.53691514 9.3125 14.3671875 C-7.54209972 -2.70184733 -29.38164764 -10.37127852 -52.97265625 -10.5625 C-76.72145052 -10.596326 -96.59850182 -3.47130612 -114.22265625 12.8125 C-114.99867187 13.49699219 -115.7746875 14.18148437 -116.57421875 14.88671875 C-132.6790235 29.85699258 -141.58896697 51.94418189 -142.4609375 73.65234375 C-143.0337281 99.98786835 -135.54021386 121.93500146 -117.5546875 141.421875 C-112.97057162 146.12116967 -108.25204072 150.64648032 -102.66015625 154.125 C-101.85578125 154.681875 -101.05140625 155.23875 -100.22265625 155.8125 C-100.22265625 156.8025 -100.22265625 157.7925 -100.22265625 158.8125 C-104.97265625 158.0625 -104.97265625 158.0625 -107.22265625 155.8125 C-107.8465625 155.66941406 -108.47046875 155.52632812 -109.11328125 155.37890625 C-113.26727081 154.26348313 -116.15446761 150.696262 -119.22265625 147.8125 C-120.23779297 146.87664062 -120.23779297 146.87664062 -121.2734375 145.921875 C-138.69052994 129.28263329 -147.83806899 105.16581751 -148.50830078 81.35180664 C-148.83012969 53.91735502 -138.97535888 30.6965874 -120.22265625 10.8125 C-87.38732674 -20.06543282 -37.64748904 -25.55465923 0 0 Z " fill="#2F666B" transform="translate(159.22265625,46.1875)"/>
<path d="M0 0 C0.33 0 0.66 0 1 0 C1.1275818 7.7553536 1.21467793 15.51043301 1.2746582 23.26660156 C1.29968295 25.90081903 1.33371334 28.53496789 1.37719727 31.16894531 C1.4383772 34.97217819 1.46633202 38.77448695 1.48828125 42.578125 C1.51408768 43.74112122 1.5398941 44.90411743 1.56648254 46.10235596 C1.56976196 55.83023088 -0.61628174 64.70471512 -7.375 72 C-16.75576208 80.36552809 -27.52299796 83.32992778 -39.8359375 83.21875 C-45.92994446 82.79743594 -50.7141013 80.39868551 -55 76 C-58.45371284 70.72904431 -60.89792572 65.55740229 -60.48046875 59.16015625 C-58.93031423 52.19076233 -53.8134405 46.82135545 -48 43 C-36.85505826 36.65194547 -25.08738711 32.20430856 -13 28 C-11.55215285 29.19591568 -10.11715709 30.40739731 -8.6875 31.625 C-7.88699219 32.29789063 -7.08648437 32.97078125 -6.26171875 33.6640625 C-4 36 -4 36 -1 42 C-0.67 28.14 -0.34 14.28 0 0 Z " fill="#39A99A" transform="translate(161,115)"/>
<path d="M0 0 C4.82965066 3.31749167 7.7834249 8.58000259 9 14.27734375 C9.38836996 21.66779569 6.59400365 26.09669413 1.859375 31.484375 C-6.7056034 39.89974679 -19.38759854 43.83125269 -30.53125 47.63671875 C-33.24449222 48.57268215 -35.90038758 49.5893524 -38.5546875 50.6796875 C-39.81580953 49.67262646 -41.06301721 48.64813637 -42.3046875 47.6171875 C-43.00078125 47.04871094 -43.696875 46.48023438 -44.4140625 45.89453125 C-46.5546875 43.6796875 -46.5546875 43.6796875 -50.5546875 36.6796875 C-50.8846875 50.5396875 -51.2146875 64.3996875 -51.5546875 78.6796875 C-51.8846875 78.6796875 -52.2146875 78.6796875 -52.5546875 78.6796875 C-52.64780115 71.40336248 -52.71866023 64.12716814 -52.76193619 56.85036564 C-52.78271776 53.4705847 -52.81085904 50.09121453 -52.85644531 46.71166992 C-52.90519409 42.816786 -52.92771035 38.92247806 -52.9453125 35.02734375 C-52.96595764 33.8269899 -52.98660278 32.62663605 -53.00787354 31.38990784 C-53.01061261 21.05003689 -50.48685713 13.99455801 -43.38671875 6.4609375 C-31.43450535 -5.15997787 -14.72699753 -7.61120056 0 0 Z " fill="#38A89A" transform="translate(95.5546875,58.3203125)"/>
<path d="M0 0 C2.31 0 4.62 0 7 0 C7.18062988 0.73822998 7.36125977 1.47645996 7.54736328 2.23706055 C12.00950121 20.4697237 12.00950121 20.4697237 17 38.5625 C19.42925735 46.88179504 21.68781301 55.23875394 23.875 63.625 C24.18566406 64.80650635 24.49632812 65.9880127 24.81640625 67.20532227 C25.10128906 68.30545654 25.38617188 69.40559082 25.6796875 70.5390625 C26.06229736 72.01173584 26.06229736 72.01173584 26.45263672 73.51416016 C27 76 27 76 27 79 C23.7 79 20.4 79 17 79 C16.32923511 76.23010036 15.66323683 73.45920258 15 70.6875 C14.80921875 69.90181641 14.6184375 69.11613281 14.421875 68.30664062 C14.24140625 67.54931641 14.0609375 66.79199219 13.875 66.01171875 C13.70742188 65.31522217 13.53984375 64.61872559 13.3671875 63.90112305 C13 62 13 62 13 59 C6.4 59 -0.2 59 -7 59 C-7.28875 60.464375 -7.5775 61.92875 -7.875 63.4375 C-8.58710251 66.98286145 -9.30635594 70.52624733 -10.0625 74.0625 C-10.21847656 74.79597656 -10.37445313 75.52945313 -10.53515625 76.28515625 C-11 78 -11 78 -12 79 C-15.00003445 79.14177857 -17.99757235 79.04228771 -21 79 C-19.63849506 70.52541452 -17.58384829 62.33437298 -15.3125 54.0625 C-14.59158117 51.41369341 -13.87481604 48.76378301 -13.16015625 46.11328125 C-12.97935516 45.44320038 -12.79855408 44.77311951 -12.61227417 44.08273315 C-10.40761146 35.86277451 -8.39865109 27.59332396 -6.43481445 19.31274414 C-4.80489988 12.61020274 -2.76530841 6.3222263 0 0 Z " fill="#3DA99B" transform="translate(420,85)"/>
<path d="M0 0 C8 0 8 0 10.40527344 2.29150391 C11.05012695 3.34257324 11.69498047 4.39364258 12.359375 5.4765625 C12.71590149 6.03942963 13.07242798 6.60229675 13.4397583 7.18222046 C14.57073927 8.98096048 15.66025776 10.80104453 16.75 12.625 C17.49605235 13.82846699 18.24472814 15.03031184 18.99609375 16.23046875 C20.38508781 18.45517972 21.75397023 20.68817678 23.11230469 22.93212891 C24.43302989 25.07856359 25.81445011 27.18828732 27.23925781 29.26708984 C29 32 29 32 29 34 C32.32652319 30.90533107 34.75752985 27.59536717 37.2578125 23.80859375 C37.64693817 23.22207535 38.03606384 22.63555695 38.4369812 22.03126526 C39.67071634 20.16954112 40.89794687 18.30363325 42.125 16.4375 C42.95660187 15.18005447 43.78862906 13.92289011 44.62109375 12.66601562 C46.14473631 10.36426496 47.66535627 8.06062319 49.18408203 5.75561523 C50.45070602 3.83354142 51.72314038 1.91528943 53 0 C55.97 0 58.94 0 62 0 C62 22.11 62 44.22 62 67 C59.36 67 56.72 67 54 67 C53.67 49.51 53.34 32.02 53 14 C49.04 19.61 45.08 25.22 41 31 C37.67004383 35.66917768 34.33964964 40.33779 31 45 C26.89096308 43.63032103 25.58910432 40.82249068 23.33203125 37.33984375 C22.94188843 36.75110474 22.55174561 36.16236572 22.14978027 35.55578613 C20.69514862 33.35553028 19.25466825 31.14594511 17.8125 28.9375 C14.574375 24.008125 11.33625 19.07875 8 14 C7.67 31.49 7.34 48.98 7 67 C4.69 67 2.38 67 0 67 C0 44.89 0 22.78 0 0 Z " fill="#11283D" transform="translate(214,96)"/>
<path d="M0 0 C5.5596719 3.49500627 8.28857187 8.49929975 10.30078125 14.59375 C10.91440822 18.04405606 10.74609375 21.59320908 10.74609375 25.09765625 C-1.46390625 25.09765625 -13.67390625 25.09765625 -26.25390625 25.09765625 C-24.35808886 34.90980166 -24.35808886 34.90980166 -17.96875 41.73828125 C-10.03375832 45.71148572 -0.22564047 42.7339778 7.74609375 40.09765625 C7.74609375 42.40765625 7.74609375 44.71765625 7.74609375 47.09765625 C1.80998155 49.68795975 -3.47247186 50.44632258 -9.87890625 50.53515625 C-10.5948999 50.55707031 -11.31089355 50.57898438 -12.04858398 50.6015625 C-18.8757392 50.57639616 -23.13367437 48.21788813 -28.00390625 43.34765625 C-34.34663849 34.1859319 -34.49435483 24.07675793 -32.8203125 13.30859375 C-31.25472502 7.64914088 -27.9630454 3.56704244 -23.25390625 0.09765625 C-16.28830067 -3.35636305 -7.09093252 -3.16954364 0 0 Z " fill="#0D253B" transform="translate(323.25390625,113.90234375)"/>
<path d="M0 0 C17.03937072 1.86847437 30.86921993 8.19470692 44 19 C44.66902344 19.51046875 45.33804687 20.0209375 46.02734375 20.546875 C60.1585785 31.8518628 68.25338095 50.36553965 70.50390625 67.93359375 C72.43479339 87.67869407 67.55287062 107.89008765 54.96875 123.5234375 C41.17459664 139.30900032 24.2427661 151.42083572 2.78515625 153.1875 C1 153 1 153 -1 151 C-0.67 150.01 -0.34 149.02 0 148 C2.59765625 147.296875 2.59765625 147.296875 6.0625 146.75 C20.69159982 143.88681227 34.88896774 137.17535144 45 126 C45.59167969 125.42378906 46.18335938 124.84757812 46.79296875 124.25390625 C59.17687694 111.58255725 64.9854039 93.78149325 65.4375 76.3125 C64.84463783 58.2206415 58.63685919 42.78266301 47 29 C46.45859375 28.34515625 45.9171875 27.6903125 45.359375 27.015625 C34.40089768 14.95023078 16.64400795 7.04565024 0.52606761 5.81040263 C-2.18804083 5.73374983 -4.89603174 5.71599985 -7.61122131 5.7215271 C-8.64388278 5.7157347 -9.67654425 5.7099423 -10.74049848 5.70397437 C-14.18127921 5.68704542 -17.62192522 5.68410397 -21.06274414 5.68115234 C-23.53694993 5.67184928 -26.0111526 5.66168004 -28.48535156 5.65071106 C-33.80215147 5.62908213 -39.11891663 5.61345053 -44.43574715 5.60334396 C-52.12285988 5.58872134 -59.80990624 5.5631746 -67.49697988 5.53501268 C-79.97054384 5.48960961 -92.44411738 5.45296808 -104.91772461 5.421875 C-117.03037194 5.39166284 -129.14299584 5.35730036 -141.25561523 5.31738281 C-142.00298661 5.31492126 -142.75035799 5.31245972 -143.52037699 5.30992357 C-147.26994339 5.29754845 -151.01950952 5.28509202 -154.76907551 5.27259517 C-185.84601852 5.16912453 -216.92298737 5.08003595 -248 5 C-248 4.67 -248 4.34 -248 4 C-164.18 3.67 -80.36 3.34 6 3 C4.02 2.34 2.04 1.68 0 1 C0 0.67 0 0.34 0 0 Z " fill="#69A9A4" transform="translate(418,50)"/>
<path d="M0 0 C-0.33 0.66 -0.66 1.32 -1 2 C-2.13091064 2.00616333 -2.13091064 2.00616333 -3.28466797 2.01245117 C-31.13391305 2.27741963 -53.95969027 6.55984328 -75 26 C-75.77601562 26.68449219 -76.55203125 27.36898437 -77.3515625 28.07421875 C-93.45636725 43.04449258 -102.36631072 65.13168189 -103.23828125 86.83984375 C-103.81107185 113.17536835 -96.31755761 135.12250146 -78.33203125 154.609375 C-73.74791537 159.30866967 -69.02938447 163.83398032 -63.4375 167.3125 C-62.633125 167.869375 -61.82875 168.42625 -61 169 C-61 169.99 -61 170.98 -61 172 C-65.75 171.25 -65.75 171.25 -68 169 C-68.62390625 168.85691406 -69.2478125 168.71382812 -69.890625 168.56640625 C-74.04461456 167.45098313 -76.93181136 163.883762 -80 161 C-81.01513672 160.06414062 -81.01513672 160.06414062 -82.05078125 159.109375 C-99.46787369 142.47013329 -108.61541274 118.35331751 -109.28564453 94.53930664 C-109.60747344 67.10485502 -99.75270263 43.8840874 -81 24 C-70.03161332 13.68546647 -57.09525518 6.17522482 -43 1 C-42.04480469 0.64679687 -41.08960937 0.29359375 -40.10546875 -0.0703125 C-27.79538739 -3.72873025 -12.44345503 -2.73327703 0 0 Z " fill="#1E424F" transform="translate(120,33)"/>
<path d="M0 0 C0.75933332 0.00043474 1.51866665 0.00086947 2.30101007 0.00131738 C3.18145646 -0.00788021 4.06190285 -0.0170778 4.96902943 -0.02655411 C5.93195972 -0.01626698 6.89489002 -0.00597986 7.88700002 0.004619 C8.91327267 -0.00020983 9.93954531 -0.00503866 10.99691713 -0.01001382 C14.44645073 -0.02131337 17.89524776 -0.00394339 21.34474844 0.01325548 C23.8133479 0.01111034 26.28194637 0.00723374 28.75054067 0.00175035 C34.76564036 -0.00695125 40.7804502 0.00295013 46.79550637 0.02145095 C53.79733722 0.04221333 60.79912047 0.04207873 67.80097633 0.04110579 C80.2916877 0.04010443 92.78229667 0.05843139 105.27297109 0.08747423 C117.39929215 0.11565537 129.52552309 0.12981552 141.65187734 0.12848985 C142.39886613 0.12840994 143.14585492 0.12833003 143.91547973 0.12824769 C144.66116475 0.12816698 145.40684978 0.12808628 146.17513132 0.12800312 C159.97284499 0.12662412 173.77052029 0.13839885 187.56822153 0.15630955 C192.45152656 0.162347 197.33482456 0.16446923 202.21813291 0.16537416 C208.78690076 0.16687933 215.35558567 0.17955017 221.92432684 0.19970644 C224.34028758 0.20556425 226.75625928 0.2080056 229.17222685 0.20685136 C232.45974053 0.20587483 235.7469847 0.2171331 239.03446096 0.23166978 C239.99962198 0.22857258 240.964783 0.22547538 241.95919132 0.22228432 C242.83702996 0.22873321 243.7148686 0.2351821 244.61930841 0.24182642 C245.37847938 0.24323527 246.13765036 0.24464411 246.91982651 0.24609566 C248.89723867 0.49909532 248.89723867 0.49909532 251.89723867 2.49909532 C251.56723867 3.15909532 251.23723867 3.81909532 250.89723867 4.49909532 C166.08723867 4.49909532 81.27723867 4.49909532 -6.10276133 4.49909532 C-2.10276133 0.49909532 -2.10276133 0.49909532 0 0 Z " fill="#164956" transform="translate(168.10276132822037,198.5009046792984)"/>
<path d="M0 0 C2.97 0 5.94 0 9 0 C9 25.74 9 51.48 9 78 C6.03 78 3.06 78 0 78 C0 52.26 0 26.52 0 0 Z " fill="#36A899" transform="translate(384,86)"/>
<path d="M0 0 C22.02705829 -0.07011505 44.05409814 -0.12300044 66.08124542 -0.15543652 C76.3090844 -0.17089818 86.536854 -0.19197436 96.76464844 -0.22631836 C105.68032932 -0.2562421 114.59595995 -0.27558009 123.51168966 -0.28226548 C128.23147396 -0.28617269 132.95111449 -0.29534066 137.67085266 -0.31719017 C142.11625287 -0.33760229 146.56145053 -0.34382425 151.00689316 -0.33932304 C152.63545203 -0.34014613 154.26401791 -0.34608361 155.89253616 -0.35761642 C171.05610059 -0.45970442 171.05610059 -0.45970442 178 3 C178 3.33 178 3.66 178 4 C120.25 4 62.5 4 3 4 C3.33 3.34 3.66 2.68 4 2 C2.68 1.34 1.36 0.68 0 0 Z " fill="#2A7372" transform="translate(248,50)"/>
<path d="M0 0 C2.31 0 4.62 0 7 0 C7 4.62 7 9.24 7 14 C11.29 14 15.58 14 20 14 C20 15.98 20 17.96 20 20 C15.71 20 11.42 20 7 20 C7.09355263 24.7875368 7.19964984 29.57456894 7.31738281 34.36157227 C7.35566618 35.99007549 7.39052024 37.61866309 7.421875 39.24731445 C7.46754002 41.58836014 7.52553077 43.9288253 7.5859375 46.26953125 C7.59748871 46.99775589 7.60903992 47.72598053 7.62094116 48.47627258 C7.72878512 52.16961374 7.89884276 53.84826414 10 57 C12.43693311 57.36416047 12.43693311 57.36416047 15.125 57.1875 C16.49011719 57.14689453 16.49011719 57.14689453 17.8828125 57.10546875 C18.58148438 57.07066406 19.28015625 57.03585938 20 57 C20 59.31 20 61.62 20 64 C14.96080822 65.67973059 10.64122002 65.55739548 5.6875 63.875 C2.32488494 61.52898949 1.50675391 59.80679426 0 56 C-0.37860493 53.16927456 -0.3513378 50.39077477 -0.29296875 47.5390625 C-0.28872391 46.74849457 -0.28447906 45.95792664 -0.28010559 45.1434021 C-0.26341301 42.6369106 -0.22577983 40.13124539 -0.1875 37.625 C-0.17244092 35.91798042 -0.15875466 34.21094815 -0.14648438 32.50390625 C-0.11354056 28.33562275 -0.06182493 24.16795111 0 20 C-2.97 20 -5.94 20 -9 20 C-9 18.02 -9 16.04 -9 14 C-6.03 14 -3.06 14 0 14 C0 9.38 0 4.76 0 0 Z " fill="#031C33" transform="translate(351,99)"/>
<path d="M0 0 C0 22.11 0 44.22 0 67 C-2.64 67 -5.28 67 -8 67 C-8.33 49.51 -8.66 32.02 -9 14 C-9.99 15.485 -9.99 15.485 -11 17 C-14.625 17.1875 -14.625 17.1875 -18 17 C-17.41189472 12.59737853 -15.81932306 9.45639997 -13.5 5.6875 C-12.8709375 4.61886719 -12.241875 3.55023438 -11.59375 2.44921875 C-9 0 -9 0 0 0 Z " fill="#152E43" transform="translate(276,96)"/>
<path d="M0 0 C1.90898194 1.60588275 2.8959191 2.57383715 3.49584961 5.03027344 C4.8487408 25.16534675 1.67297611 44.27406943 -12.03125 59.97924805 C-14.2773527 62.40823654 -16.6125989 64.70836857 -19 67 C-19.77601563 67.76054687 -20.55203125 68.52109375 -21.3515625 69.3046875 C-32.62610267 79.86211911 -47.71951104 86.91172647 -63.21484375 88.1875 C-65 88 -65 88 -67 86 C-66.67 85.01 -66.34 84.02 -66 83 C-63.40234375 82.296875 -63.40234375 82.296875 -59.9375 81.75 C-45.30840018 78.88681227 -31.11103226 72.17535144 -21 61 C-20.40832031 60.42378906 -19.81664062 59.84757812 -19.20703125 59.25390625 C-3.45738919 43.13870189 -0.47299856 21.54508438 0 0 Z " fill="#408483" transform="translate(484,115)"/>
<path d="M0 0 C3.125 -0.1875 3.125 -0.1875 6 0 C5.67 1.98 5.34 3.96 5 6 C6.02154175 6.01401855 6.02154175 6.01401855 7.0637207 6.02832031 C10.14738647 6.08198131 13.22952794 6.16563551 16.3125 6.25 C17.38435547 6.26417969 18.45621094 6.27835938 19.56054688 6.29296875 C20.58857422 6.32519531 21.61660156 6.35742188 22.67578125 6.390625 C23.62364502 6.41157227 24.57150879 6.43251953 25.5480957 6.45410156 C28 7 28 7 29.83276367 9.03808594 C30.21795166 9.68551758 30.60313965 10.33294922 31 11 C30 12 30 12 27.59155273 12.11352539 C26.54942627 12.10828857 25.5072998 12.10305176 24.43359375 12.09765625 C23.30888672 12.09443359 22.18417969 12.09121094 21.02539062 12.08789062 C19.84138672 12.07951172 18.65738281 12.07113281 17.4375 12.0625 C16.24962891 12.05798828 15.06175781 12.05347656 13.83789062 12.04882812 C10.89187774 12.03699675 7.94596319 12.02051287 5 12 C5.28910979 13.43100847 5.58625521 14.86039481 5.88671875 16.2890625 C6.05131592 17.08521973 6.21591309 17.88137695 6.38549805 18.70166016 C7.54545306 23.04008548 9.66157171 26.03907713 13.28515625 28.640625 C21.22014793 32.61382947 31.02826578 29.63632155 39 27 C39 29.31 39 31.62 39 34 C33.0638878 36.5903035 27.78143439 37.34866633 21.375 37.4375 C20.65900635 37.45941406 19.9430127 37.48132813 19.20532227 37.50390625 C12.37816705 37.47873991 8.12023188 35.12023188 3.25 30.25 C-1.30745076 23.66701556 -2.25870613 18.58726263 -2.3125 10.6875 C-2.31805908 9.98125488 -2.32361816 9.27500977 -2.3293457 8.54736328 C-2.2772655 4.83586952 -2.10767051 3.16150576 0 0 Z " fill="#051F36" transform="translate(292,127)"/>
<path d="M0 0 C0.33 0 0.66 0 1 0 C1.042721 1.66611905 1.04063832 3.33382885 1 5 C0.67 5.33 0.34 5.66 0 6 C-0.165 7.155 -0.33 8.31 -0.5 9.5 C-1 13 -1 13 -2 14 C-2.26293056 18.03160191 -2.29404844 19.55892734 0 23 C0.99 19.535 0.99 19.535 2 16 C2.66 16 3.32 16 4 16 C4.33 14.68 4.66 13.36 5 12 C6.16429571 16.32621552 7.31980922 20.65461509 8.46533203 24.98583984 C8.94980044 26.81089208 9.44129289 28.63407618 9.93359375 30.45703125 C10.20300781 31.48183594 10.47242188 32.50664063 10.75 33.5625 C10.99234375 34.47128906 11.2346875 35.38007812 11.484375 36.31640625 C12 39 12 39 12 45 C7.05 45 2.1 45 -3 45 C-3.495 43.515 -3.495 43.515 -4 42 C-6.01508358 41.26676204 -6.01508358 41.26676204 -8 41 C-9.76551561 43.75861813 -10 45.20245577 -10 48.5625 C-10 52 -10 52 -12 55 C-12.185625 56.7015625 -12.185625 56.7015625 -12.375 58.4375 C-13.06639623 62.37845851 -13.94908337 63.53958336 -17 66 C-16.3629665 59.17230764 -14.72327203 52.84261994 -12.875 46.25 C-9.82934696 35.20462303 -6.99794979 24.12673017 -4.31005859 12.98925781 C-4.03629395 11.87131836 -3.7625293 10.75337891 -3.48046875 9.6015625 C-3.24223389 8.61494629 -3.00399902 7.62833008 -2.75854492 6.61181641 C-2.06143993 4.21154954 -1.20129276 2.18410989 0 0 Z M-13 60 C-12.34 60 -11.68 60 -11 60 C-11.33 60.66 -11.66 61.32 -12 62 C-12.33 61.34 -12.66 60.68 -13 60 Z " fill="#40A99B" transform="translate(418,91)"/>
<path d="M0 0 C0.33 0 0.66 0 1 0 C1.84202017 3.53922299 2.12407456 6.93704052 2.23876953 10.56860352 C3.17290637 37.41421165 12.9034074 59.60987817 32.36328125 78.265625 C35.6204076 81.22167244 38.82341173 83.98654134 42.5625 86.3125 C43.366875 86.869375 44.17125 87.42625 45 88 C45 88.99 45 89.98 45 91 C40.25 90.25 40.25 90.25 38 88 C37.37609375 87.85691406 36.7521875 87.71382813 36.109375 87.56640625 C31.95538544 86.45098313 29.06818864 82.883762 26 80 C25.32324219 79.37609375 24.64648438 78.7521875 23.94921875 78.109375 C7.98472286 62.85785659 -2.34496086 39.74238228 -3.07714844 17.67480469 C-3.16102717 12.44772748 -3.10558282 7.2263496 -3 2 C-2.34 2.66 -1.68 3.32 -1 4 C-0.67 2.68 -0.34 1.36 0 0 Z " fill="#2E656B" transform="translate(14,114)"/>
<path d="M0 0 C0.66 1.32 1.32 2.64 2 4 C3.01191406 3.76925781 4.02382813 3.53851563 5.06640625 3.30078125 C9.57765469 2.95582978 12.11557261 4.06795262 15.9375 6.1875 C29.58214725 13.4943855 43.20850433 14.56151469 58.375 14.125 C60.7434224 14.06957294 63.11160533 14.02036682 65.4803772 13.9826355 C66.93631606 13.9582739 68.39212647 13.92321626 69.84750366 13.87600708 C71.56515176 13.84143394 73.28426375 13.91191239 75 14 C75.99 14.99 75.99 14.99 77 16 C74.55073544 18.96489921 72.749968 19.43965242 69 20 C53.57825203 20.88983424 37.65955625 21.3675446 23 16 C21.95714844 15.63777344 20.91429687 15.27554688 19.83984375 14.90234375 C11.96471985 11.90471594 5.03831518 7.57490487 -2 3 C-1.34 2.67 -0.68 2.34 0 2 C0 1.34 0 0.68 0 0 Z " fill="#398682" transform="translate(52,200)"/>
<path d="M0 0 C2.31 0 4.62 0 7 0 C6.67 0.99 6.34 1.98 6 3 C4.68 2.67 3.36 2.34 2 2 C1.979375 3.27875 1.95875 4.5575 1.9375 5.875 C1.92589844 6.59429687 1.91429687 7.31359375 1.90234375 8.0546875 C1.87350758 10.08185404 1.87350758 10.08185404 3 12 C3.99 12 4.98 12 6 12 C6 30.15 6 48.3 6 67 C4.02 67 2.04 67 0 67 C0 44.89 0 22.78 0 0 Z " fill="#021C34" transform="translate(214,96)"/>
<path d="M0 0 C10.86588177 -0.0231729 21.73175766 -0.04094036 32.59765911 -0.05181217 C37.64315857 -0.05703015 42.68864113 -0.06410816 47.73413086 -0.07543945 C52.60353067 -0.08630681 57.47291421 -0.09228502 62.34232521 -0.09487724 C64.19985014 -0.09672454 66.05737419 -0.10033182 67.9148922 -0.10573006 C70.51709287 -0.11299152 73.11922637 -0.11398878 75.72143555 -0.11352539 C76.4889212 -0.11712067 77.25640686 -0.12071594 78.04714966 -0.12442017 C81.82505679 -0.11714312 85.32734903 0.0869181 89 1 C88.34 1.99 87.68 2.98 87 4 C84.33028651 4.30761358 81.89056421 4.41983241 79.21728516 4.40405273 C78.0121653 4.41434761 78.0121653 4.41434761 76.78269958 4.42485046 C74.11797576 4.44320148 71.45383616 4.4392687 68.7890625 4.43359375 C66.940621 4.4381522 65.09218121 4.44345676 63.2437439 4.44947815 C59.36489998 4.45842602 55.48626174 4.45596788 51.60742188 4.44604492 C46.63483633 4.43456418 41.66296183 4.45474434 36.69046974 4.48396206 C32.87118003 4.50230515 29.0520612 4.5020352 25.23273849 4.49632454 C23.3994993 4.49617103 21.56624873 4.50223955 19.7330513 4.51461601 C17.16874856 4.5294855 14.60576521 4.51887884 12.04150391 4.50170898 C11.2829158 4.51137695 10.5243277 4.52104492 9.74275208 4.53100586 C6.13473515 4.48038876 4.3429565 4.27837796 1.49740601 1.96864319 C0.75619003 0.99416481 0.75619003 0.99416481 0 0 Z " fill="#1E5A5F" transform="translate(164,50)"/>
<path d="M0 0 C1.53936288 -0.00322473 3.07872548 -0.00658965 4.61808777 -0.01008606 C7.80537631 -0.01600297 10.99263801 -0.01793303 14.17993164 -0.01733398 C18.26418072 -0.01723113 22.34826074 -0.03104144 26.43246937 -0.04810619 C29.59369202 -0.05919614 32.75487279 -0.06125436 35.9161129 -0.06072426 C37.42361741 -0.06190281 38.93112306 -0.06631757 40.43860817 -0.07405663 C42.5318699 -0.083824 44.62475008 -0.08099501 46.71801758 -0.07495117 C47.90663895 -0.07637619 49.09526031 -0.07780121 50.31990051 -0.07926941 C53.23046875 0.16796875 53.23046875 0.16796875 56.23046875 2.16796875 C55.90046875 2.82796875 55.57046875 3.48796875 55.23046875 4.16796875 C25.86046875 4.16796875 -3.50953125 4.16796875 -33.76953125 4.16796875 C-33.43953125 3.17796875 -33.10953125 2.18796875 -32.76953125 1.16796875 C-21.83368034 0.36821524 -10.96353923 0.00550788 0 0 Z " fill="#1D5C64" transform="translate(363.76953125,198.83203125)"/>
<path d="M0 0 C1.29063858 0.00586624 2.58127716 0.01173248 3.911026 0.01777649 C4.62534286 0.01558609 5.33965973 0.01339569 6.07562256 0.01113892 C8.43277064 0.00883078 10.78866391 0.0350693 13.14564514 0.06196594 C14.78704431 0.06689144 16.4284491 0.07018928 18.06985474 0.07192993 C21.50895652 0.07956797 24.94764183 0.10011944 28.38661194 0.13105774 C32.78934168 0.17060109 37.19180041 0.18866266 41.59468746 0.19836712 C45.79920987 0.20835683 50.00366669 0.22822797 54.20814514 0.24946594 C55.00815382 0.25286169 55.8081625 0.25625744 56.63241386 0.25975609 C58.90374849 0.27137387 61.17491572 0.28990236 63.44618225 0.31074524 C65.38333351 0.32551155 65.38333351 0.32551155 67.35961914 0.34057617 C70.28492988 0.46781063 72.90319498 0.80835301 75.74330139 1.48774719 C76.23830139 2.97274719 76.23830139 2.97274719 76.74330139 4.48774719 C49.02330139 4.48774719 21.30330139 4.48774719 -7.25669861 4.48774719 C-3.25669861 0.48774719 -3.25669861 0.48774719 0 0 Z " fill="#0B3244" transform="translate(169.25669860839844,198.5122528076172)"/>
<path d="M0 0 C1.69576172 -0.03867188 1.69576172 -0.03867188 3.42578125 -0.078125 C7.02510819 0.28396298 8.8268911 1.07654804 11.6875 3.25 C13.98878295 6.97966548 14.6875 8.81661697 14.6875 13.25 C5.4475 13.25 -3.7925 13.25 -13.3125 13.25 C-12.16529188 5.21954315 -12.16529188 5.21954315 -8.3125 1.25 C-5.51142988 -0.15053506 -3.12358319 0.0424496 0 0 Z " fill="#F8FBFC" transform="translate(311.3125,118.75)"/>
<path d="M0 0 C2.42766248 2.42766248 2.57135394 3.82427567 3.25390625 7.15625 C3.46853516 8.17847656 3.68316406 9.20070313 3.90429688 10.25390625 C4.12150391 11.32511719 4.33871094 12.39632812 4.5625 13.5 C4.99900144 15.61505944 5.43769495 17.72966804 5.87890625 19.84375 C6.0704126 20.78412109 6.26191895 21.72449219 6.45922852 22.69335938 C6.90847621 25.0096632 6.90847621 25.0096632 8 27 C8 28.98 8 30.96 8 33 C3.05 33 -1.9 33 -7 33 C-5.00033461 21.90185707 -2.67091391 10.9548144 0 0 Z " fill="#EDFBFA" transform="translate(422,103)"/>
<path d="M0 0 C1.90898194 1.60588275 2.8959191 2.57383715 3.49584961 5.03027344 C4.69449808 22.86975309 3.01705347 42.3585113 -9.36767578 56.56933594 C-10.54304097 57.7492552 -11.76689767 58.88055754 -13 60 C-14.375 57.5625 -14.375 57.5625 -15 54 C-13.78641631 51.66050596 -12.28184178 49.66212494 -10.7265625 47.53515625 C-1.20457711 33.55377951 -0.50465631 16.32302149 0 0 Z " fill="#3F8F89" transform="translate(484,115)"/>
<path d="M0 0 C0 0.66 0 1.32 0 2 C0.66 2 1.32 2 2 2 C3.99630837 9.96580747 4.33461776 17.62450382 4.3125 25.8125 C4.32861328 26.99392578 4.34472656 28.17535156 4.36132812 29.39257812 C4.36584343 37.63300094 3.18477468 45.06024942 1 53 C-0.32 52.34 -1.64 51.68 -3 51 C-2.92998779 50.36835938 -2.85997559 49.73671875 -2.7878418 49.0859375 C-2.00293416 41.37982396 -1.81668061 33.74249523 -1.8125 26 C-1.79413086 24.20949219 -1.79413086 24.20949219 -1.77539062 22.3828125 C-1.76332647 15.03172015 -2.38467794 8.17514161 -4 1 C-2 0 -2 0 0 0 Z " fill="#397F7C" transform="translate(197,99)"/>
<path d="M0 0 C1.42953772 -0.01177338 2.85904309 -0.02876497 4.28845215 -0.05126953 C11.85223818 -0.16497365 18.03656881 -0.0843507 24.91400146 3.23217773 C24.91400146 3.56217773 24.91400146 3.89217773 24.91400146 4.23217773 C17.68767376 4.25580386 10.46135495 4.27333959 3.23499584 4.28398991 C-0.12389365 4.2891127 -3.48273562 4.29659493 -6.84161377 4.30761719 C-24.95209856 4.36545642 -42.99390706 4.06039713 -61.08599854 3.23217773 C-61.08599854 2.57217773 -61.08599854 1.91217773 -61.08599854 1.23217773 C-19.17091002 0.13268888 -19.17091002 0.13268888 0 0 Z " fill="#328781" transform="translate(401.08599853515625,49.767822265625)"/>
<path d="M0 0 C8.03852108 3.15470564 16.69683946 6.85325699 23.4140625 12.33984375 C22.6303125 12.31921875 21.8465625 12.29859375 21.0390625 12.27734375 C18.43291289 12.15300312 18.43291289 12.15300312 16.4140625 13.33984375 C13.69215965 12.15796488 11.06400959 10.91679782 8.4140625 9.58984375 C2.18333677 6.55871518 -3.83727068 4.00163953 -10.5859375 2.33984375 C-17.1758654 0.56464999 -17.1758654 0.56464999 -19.46972656 -0.69287109 C-21.95481279 -1.82876307 -23.84587275 -1.97454412 -26.5703125 -2.07421875 C-27.97216797 -2.13222656 -27.97216797 -2.13222656 -29.40234375 -2.19140625 C-30.37042969 -2.22234375 -31.33851562 -2.25328125 -32.3359375 -2.28515625 C-33.81126953 -2.34316406 -33.81126953 -2.34316406 -35.31640625 -2.40234375 C-37.73939787 -2.49644051 -40.16238546 -2.58207953 -42.5859375 -2.66015625 C-31.10422325 -8.87382614 -11.78049781 -3.8732406 0 0 Z " fill="#385D65" transform="translate(136.5859375,34.66015625)"/>
<path d="M0 0 C0.33 0.99 0.66 1.98 1 3 C10.9 3 20.8 3 31 3 C31 3.33 31 3.66 31 4 C29.83766846 3.98259766 29.83766846 3.98259766 28.65185547 3.96484375 C9.3228451 3.40660101 9.3228451 3.40660101 -7.87890625 10.921875 C-13.28685554 14.52266226 -21.46508114 18 -28 18 C-28.33 17.01 -28.66 16.02 -29 15 C-29.66 14.34 -30.32 13.68 -31 13 C-29.52853516 12.5978125 -29.52853516 12.5978125 -28.02734375 12.1875 C-17.91291623 9.29423874 -9.09279161 5.26493537 0 0 Z " fill="#6D9191" transform="translate(156,200)"/>
<path d="M0 0 C3 4 3 4 4.75 6.875 C7.04162788 10.0578165 9.39404077 12.25018159 12.4140625 14.703125 C14 16 14 16 16 18 C15.13375 18.185625 14.2675 18.37125 13.375 18.5625 C7.71417769 20.97359098 4.53877087 25.36202926 2.125 30.9375 C1.75375 31.948125 1.3825 32.95875 1 34 C0.67 34 0.34 34 0 34 C0 22.78 0 11.56 0 0 Z " fill="#045B77" transform="translate(44,93)"/>
<path d="M0 0 C0.33 0 0.66 0 1 0 C1 11.22 1 22.44 1 34 C-2 30 -2 30 -3.6875 27.125 C-6.59099898 23.20135274 -10.00217821 20.73637317 -14 18 C-11.31158141 15.74754119 -9.35358125 14.11786042 -6 13 C-4.97549761 10.81862203 -4.97549761 10.81862203 -4 8 C-2.71032642 5.31110527 -1.35730552 2.65531129 0 0 Z " fill="#065A75" transform="translate(160,125)"/>
<path d="M0 0 C2.97 0 5.94 0 9 0 C9 25.74 9 51.48 9 78 C6.03 78 3.06 78 0 78 C0 52.26 0 26.52 0 0 Z M3 1 C0.6814416 2.88617365 0.6814416 2.88617365 0.75949097 6.01187134 C0.76393219 7.30426727 0.76837341 8.59666321 0.77294922 9.92822266 C0.77265717 10.64052536 0.77236511 11.35282806 0.77206421 12.0867157 C0.77345984 14.44595434 0.78903173 16.80487889 0.8046875 19.1640625 C0.80841681 20.79788032 0.81126417 22.43170038 0.81326294 24.06552124 C0.8209059 28.36952876 0.84056001 32.67340168 0.8626709 36.97735596 C0.8831151 41.36769795 0.8922616 45.75806165 0.90234375 50.1484375 C0.92380534 58.76568682 0.95794919 67.38282668 1 76 C3.31 76 5.62 76 8 76 C8 51.58 8 27.16 8 2 C6.35 1.67 4.7 1.34 3 1 Z " fill="#54AB9C" transform="translate(384,86)"/>
<path d="M0 0 C0.66 1.32 1.32 2.64 2 4 C3.01191406 3.76925781 4.02382813 3.53851563 5.06640625 3.30078125 C9.58857092 2.95499507 12.1040532 4.08235294 15.9375 6.1875 C25.50632784 11.0573607 35.40316536 13.33454987 46 15 C46 15.33 46 15.66 46 16 C42.37 16 38.74 16 35 16 C35 16.66 35 17.32 35 18 C29.4581488 17.46488229 24.5303711 16.43203123 19.3125 14.4375 C18.63058594 14.18081543 17.94867188 13.92413086 17.24609375 13.65966797 C10.29914467 10.92382255 4.17855223 7.16840681 -2 3 C-1.34 2.67 -0.68 2.34 0 2 C0 1.34 0 0.68 0 0 Z " fill="#3C7D7D" transform="translate(52,200)"/>
<path d="M0 0 C2 1 2 1 3.125 4.0625 C4.19682285 8.09858291 4.1459001 11.84184728 4 16 C0.04 16 -3.92 16 -8 16 C-8.66 14.68 -9.32 13.36 -10 12 C-12.40070521 11.26195983 -12.40070521 11.26195983 -15.2265625 11.171875 C-16.7734375 11.05585938 -16.7734375 11.05585938 -18.3515625 10.9375 C-19.43179687 10.875625 -20.51203125 10.81375 -21.625 10.75 C-23.25695312 10.63398438 -23.25695312 10.63398438 -24.921875 10.515625 C-27.61389782 10.32671112 -30.30588028 10.15561246 -33 10 C-32.67 9.01 -32.34 8.02 -32 7 C-32 7.66 -32 8.32 -32 9 C-22.76 9 -13.52 9 -4 9 C-4 6.69 -4 4.38 -4 2 C-3.01 2 -2.02 2 -1 2 C-0.67 1.34 -0.34 0.68 0 0 Z " fill="#1B3246" transform="translate(330,123)"/>
<path d="M0 0 C0.33 0 0.66 0 1 0 C2.03321954 4.35489228 2.24417838 8.67217516 2.4375 13.125 C2.73388488 19.10518917 3.37907324 24.80911461 4.58984375 30.68359375 C5.15005455 33.84745095 5.14237261 36.79661623 5 40 C3.68 40 2.36 40 1 40 C0.51460131 38.16830682 0.03702814 36.33453941 -0.4375 34.5 C-0.70433594 33.4790625 -0.97117187 32.458125 -1.24609375 31.40625 C-2.80110561 24.38049693 -3.13832026 17.66209887 -3.0625 10.5 C-3.05798828 9.67757812 -3.05347656 8.85515625 -3.04882812 8.0078125 C-3.03718489 6.00517604 -3.01925556 4.00257773 -3 2 C-2.34 2.66 -1.68 3.32 -1 4 C-0.67 2.68 -0.34 1.36 0 0 Z " fill="#2E5964" transform="translate(14,114)"/>
<path d="M0 0 C15.84 0 31.68 0 48 0 C48 0.33 48 0.66 48 1 C45.36 1 42.72 1 40 1 C40 1.99 40 2.98 40 4 C27.79 4 15.58 4 3 4 C3.33 3.34 3.66 2.68 4 2 C2.68 1.34 1.36 0.68 0 0 Z " fill="#276769" transform="translate(248,50)"/>
<path d="M0 0 C0.17835515 4.54805635 -0.00214565 7.8794254 -2 12 C-2.33 12 -2.66 12 -3 12 C-3.33 14.97 -3.66 17.94 -4 21 C-4.66 21 -5.32 21 -6 21 C-6.33 23.64 -6.66 26.28 -7 29 C-9 27.9375 -9 27.9375 -11 26 C-11.3125 22.375 -11.3125 22.375 -11 19 C-10.67 18.67 -10.34 18.34 -10 18 C-9.835 16.845 -9.67 15.69 -9.5 14.5 C-9 11 -9 11 -8 10 C-8.04125 8.88625 -8.0825 7.7725 -8.125 6.625 C-8 3 -8 3 -6.8125 1.0625 C-4.43958382 -0.32851983 -2.70313576 -0.21917317 0 0 Z " fill="#37A999" transform="translate(426,86)"/>
<path d="M0 0 C0.99 0 1.98 0 3 0 C3 0.66 3 1.32 3 2 C3.66 2 4.32 2 5 2 C5.33 1.34 5.66 0.68 6 0 C11.18544944 8.58236917 16.36119905 17.23787844 19 27 C18.67 27.99 18.34 28.98 18 30 C18 29.34 18 28.68 18 28 C16.68 28.33 15.36 28.66 14 29 C13.63648438 28.03320312 13.27296875 27.06640625 12.8984375 26.0703125 C10.19669206 19.02492195 7.39432922 12.42827047 3.296875 6.05078125 C2.05346679 4.08454839 1.00353027 2.09699958 0 0 Z " fill="#327473" transform="translate(179,71)"/>
<path d="M0 0 C-0.59375 1.83203125 -0.59375 1.83203125 -2 4 C-9.06160265 7.52130992 -18.01460179 10.64345151 -26 10 C-26.66 9.34 -27.32 8.68 -28 8 C-27.67 7.01 -27.34 6.02 -27 5 C-24.12109375 4.15625 -24.12109375 4.15625 -20.4375 3.5 C-16.25319816 2.70056022 -12.36407954 1.91124519 -8.4375 0.25 C-4.95775613 -1.01536141 -3.44807783 -1.18527675 0 0 Z " fill="#2E7474" transform="translate(445,193)"/>
<path d="M0 0 C0.58201172 0.73669922 0.58201172 0.73669922 1.17578125 1.48828125 C3.61211696 3.50725753 5.06930672 3.30898805 8.1875 3.1875 C9.08855469 3.16042969 9.98960937 3.13335937 10.91796875 3.10546875 C11.60503906 3.07066406 12.29210937 3.03585938 13 3 C13 5.31 13 7.62 13 10 C7.74461396 11.75179535 3.51111219 11.64761951 -1.5 9.5 C-2.325 9.005 -3.15 8.51 -4 8 C-3.40138258 5.64828869 -2.73075648 3.3140622 -2 1 C-1.34 0.67 -0.68 0.34 0 0 Z " fill="#122B40" transform="translate(358,153)"/>
<path d="M0 0 C2.0717067 3.64881676 3.07568078 7.53233693 4.125 11.5625 C4.30675781 12.23474609 4.48851562 12.90699219 4.67578125 13.59960938 C5.43856971 16.48730855 6 18.9997421 6 22 C2.7 22 -0.6 22 -4 22 C-4.33 20.02 -4.66 18.04 -5 16 C-4.34 15.67 -3.68 15.34 -3 15 C-2.36198164 12.4684134 -1.83312632 10.00160498 -1.375 7.4375 C-1.2409375 6.72658203 -1.106875 6.01566406 -0.96875 5.28320312 C-0.63808153 3.52357447 -0.31804233 1.76195452 0 0 Z " fill="#41AB9D" transform="translate(441,142)"/>
<path d="M0 0 C18.48 0 36.96 0 56 0 C56 0.33 56 0.66 56 1 C41.48 1 26.96 1 12 1 C12 1.66 12 2.32 12 3 C20.91 3 29.82 3 39 3 C39 3.33 39 3.66 39 4 C26.13 4 13.26 4 0 4 C1.32 3.67 2.64 3.34 4 3 C4 2.34 4 1.68 4 1 C2.68 0.67 1.36 0.34 0 0 Z " fill="#347C76" transform="translate(328,50)"/>
<path d="M0 0 C0.66 1.32 1.32 2.64 2 4 C2.66 4 3.32 4 4 4 C3.566875 5.8253125 3.566875 5.8253125 3.125 7.6875 C1.77103836 13.74164275 0.89152079 19.86368138 0 26 C-0.66 25.67 -1.32 25.34 -2 25 C-2.66 25.99 -3.32 26.98 -4 28 C-4.61246715 17.91130505 -2.95199884 9.52810341 0 0 Z " fill="#2A4D57" transform="translate(16,93)"/>
<path d="M0 0 C9.9 0 19.8 0 30 0 C27 4 27 4 24.73168945 4.45410156 C23.86761475 4.4331543 23.00354004 4.41220703 22.11328125 4.390625 C21.17548828 4.37773437 20.23769531 4.36484375 19.27148438 4.3515625 C18.29501953 4.31804687 17.31855469 4.28453125 16.3125 4.25 C15.32443359 4.23195312 14.33636719 4.21390625 13.31835938 4.1953125 C10.87793158 4.14815447 8.43945231 4.08236042 6 4 C5.67 3.01 5.34 2.02 5 1 C3.35 1 1.7 1 0 1 C0 0.67 0 0.34 0 0 Z " fill="#113D4C" transform="translate(240,199)"/>
<path d="M0 0 C1.13308594 0.05607422 1.13308594 0.05607422 2.2890625 0.11328125 C3.15015625 0.14808594 4.01125 0.18289062 4.8984375 0.21875 C5.89359375 0.28707031 6.88875 0.35539063 7.9140625 0.42578125 C9.77804688 0.54373047 9.77804688 0.54373047 11.6796875 0.6640625 C15.09332943 0.89555441 18.50370204 1.15059366 21.9140625 1.42578125 C21.9140625 2.41578125 21.9140625 3.40578125 21.9140625 4.42578125 C12.6740625 4.42578125 3.4340625 4.42578125 -6.0859375 4.42578125 C-2.0859375 0.42578125 -2.0859375 0.42578125 0 0 Z " fill="#062940" transform="translate(168.0859375,198.57421875)"/>
<path d="M0 0 C0 0.66 0 1.32 0 2 C-0.99 2 -1.98 2 -3 2 C-3.33 2.99 -3.66 3.98 -4 5 C-6.72265625 5.94921875 -6.72265625 5.94921875 -10.0625 6.6875 C-11.71958984 7.06455078 -11.71958984 7.06455078 -13.41015625 7.44921875 C-14.26480469 7.63097656 -15.11945313 7.81273437 -16 8 C-16.33 7.01 -16.66 6.02 -17 5 C-17.66 4.34 -18.32 3.68 -19 3 C-16.77518771 2.29853686 -14.54492632 1.61434046 -12.3125 0.9375 C-11.07113281 0.55464844 -9.82976562 0.17179688 -8.55078125 -0.22265625 C-5.1468214 -0.96785758 -3.28440924 -0.99851065 0 0 Z " fill="#4C9791" transform="translate(144,210)"/>
<path d="M0 0 C1.44536133 -0.00193359 1.44536133 -0.00193359 2.91992188 -0.00390625 C3.92990234 -0.00003906 4.93988281 0.00382812 5.98046875 0.0078125 C6.97884766 0.00394531 7.97722656 0.00007813 9.00585938 -0.00390625 C9.97330078 -0.00261719 10.94074219 -0.00132813 11.9375 0 C12.82026611 0.00112793 13.70303223 0.00225586 14.61254883 0.00341797 C17.21861374 0.13537693 19.62600851 0.55765152 22.16796875 1.1328125 C21.83796875 1.7928125 21.50796875 2.4528125 21.16796875 3.1328125 C16.87635828 3.19065092 12.5848473 3.2263537 8.29296875 3.2578125 C7.06964844 3.27457031 5.84632812 3.29132812 4.5859375 3.30859375 C2.83603516 3.31826172 2.83603516 3.31826172 1.05078125 3.328125 C-0.02800293 3.33859863 -1.10678711 3.34907227 -2.21826172 3.35986328 C-4.83203125 3.1328125 -4.83203125 3.1328125 -6.83203125 1.1328125 C-4.37511962 -0.09564332 -2.74471947 0.00352048 0 0 Z " fill="#184755" transform="translate(97.83203125,31.8671875)"/>
<path d="M0 0 C0.33 0 0.66 0 1 0 C1.90413673 3.83724172 2.10576898 7.37502274 2.0625 11.3125 C2.05347656 12.38113281 2.04445313 13.44976562 2.03515625 14.55078125 C2.02355469 15.35902344 2.01195312 16.16726562 2 17 C1.34 17.33 0.68 17.66 0 18 C-0.66 18.99 -1.32 19.98 -2 21 C-3 20 -3 20 -3.11352539 18.23413086 C-3.10828857 17.48526611 -3.10305176 16.73640137 -3.09765625 15.96484375 C-3.09443359 15.15595703 -3.09121094 14.34707031 -3.08789062 13.51367188 C-3.07951172 12.66353516 -3.07113281 11.81339844 -3.0625 10.9375 C-3.05798828 10.08349609 -3.05347656 9.22949219 -3.04882812 8.34960938 C-3.03700373 6.23304337 -3.01906769 4.11651315 -3 2 C-2.34 2.66 -1.68 3.32 -1 4 C-0.67 2.68 -0.34 1.36 0 0 Z " fill="#395E69" transform="translate(14,114)"/>
<path d="M0 0 C14.52 0 29.04 0 44 0 C44 0.33 44 0.66 44 1 C33.44 1 22.88 1 12 1 C12 1.66 12 2.32 12 3 C12.99 3.33 13.98 3.66 15 4 C13.25138208 4.10853491 11.50080759 4.18583428 9.75 4.25 C8.77546875 4.29640625 7.8009375 4.3428125 6.796875 4.390625 C4 4 4 4 0 0 Z " fill="#1D4E54" transform="translate(164,50)"/>
<path d="M0 0 C1.18654404 4.38677368 0.73593573 7.51079204 0 12 C-0.33 12.33 -0.66 12.66 -1 13 C-0.979375 14.11375 -0.95875 15.2275 -0.9375 16.375 C-1 20 -1 20 -3 23 C-3.12375 24.134375 -3.2475 25.26875 -3.375 26.4375 C-4.06639623 30.37845851 -4.94908337 31.53958336 -8 34 C-7.34887891 26.59005856 -5.42228272 19.65307831 -3.4375 12.5 C-3.10814453 11.29601562 -2.77878906 10.09203125 -2.43945312 8.8515625 C-1.63119406 5.89965982 -0.81792254 2.94923686 0 0 Z M-4 28 C-3.34 28 -2.68 28 -2 28 C-2.33 28.66 -2.66 29.32 -3 30 C-3.33 29.34 -3.66 28.68 -4 28 Z " fill="#4DAA9C" transform="translate(409,123)"/>
<path d="M0 0 C0.93423645 3.01031744 1.04449911 3.86650268 0 7 C-1.84765625 8.82421875 -1.84765625 8.82421875 -4.0625 10.6875 C-4.79597656 11.31011719 -5.52945313 11.93273438 -6.28515625 12.57421875 C-6.85105469 13.04472656 -7.41695312 13.51523437 -8 14 C-9.32 13.34 -10.64 12.68 -12 12 C-10.68842484 8.06527452 -8.66616553 6.87316576 -5.4375 4.3125 C-4.42558594 3.50425781 -3.41367187 2.69601563 -2.37109375 1.86328125 C-1.58863281 1.24839844 -0.80617188 0.63351563 0 0 Z " fill="#2F4E5C" transform="translate(50,48)"/>
<path d="M0 0 C0.33 0 0.66 0 1 0 C2.43250689 19.19559229 2.43250689 19.19559229 1 26 C0.01 26.66 -0.98 27.32 -2 28 C-1.86162204 23.70805854 -1.71304061 19.41653071 -1.5625 15.125 C-1.52318359 13.90167969 -1.48386719 12.67835938 -1.44335938 11.41796875 C-1.40146484 10.25136719 -1.35957031 9.08476563 -1.31640625 7.8828125 C-1.27974854 6.80402832 -1.24309082 5.72524414 -1.20532227 4.61376953 C-1 2 -1 2 0 0 Z " fill="#2A867F" transform="translate(198,116)"/>
<path d="M0 0 C5.47932789 1.54545146 10.11429181 4.15543212 15 7 C14.01 7.33 13.02 7.66 12 8 C11.38640625 8.23589844 10.7728125 8.47179688 10.140625 8.71484375 C7.08085125 9.12244135 5.43427222 8.01059422 2.75 6.5625 C1.85796875 6.08941406 0.9659375 5.61632813 0.046875 5.12890625 C-0.62859375 4.75636719 -1.3040625 4.38382813 -2 4 C-1.34 3.67 -0.68 3.34 0 3 C0 2.01 0 1.02 0 0 Z " fill="#326269" transform="translate(145,39)"/>
<path d="M0 0 C-0.33 2.97 -0.66 5.94 -1 9 C-3 5 -3 5 -3 2 C-9.6 2 -16.2 2 -23 2 C-20.673505 -0.326495 -20.12973508 -0.28457181 -16.97265625 -0.44921875 C-16.18052734 -0.49240234 -15.38839844 -0.53558594 -14.57226562 -0.58007812 C-13.32993164 -0.63325195 -13.32993164 -0.63325195 -12.0625 -0.6875 C-11.23814453 -0.73455078 -10.41378906 -0.78160156 -9.56445312 -0.83007812 C-3.40578037 -1.13526012 -3.40578037 -1.13526012 0 0 Z " fill="#48A396" transform="translate(436,142)"/>
<path d="M0 0 C4.32712851 7.34520973 4.33394597 17.65135068 4 26 C3.34 26 2.68 26 2 26 C1.90912109 24.62714844 1.90912109 24.62714844 1.81640625 23.2265625 C1.73261719 22.03804687 1.64882813 20.84953125 1.5625 19.625 C1.48128906 18.44164063 1.40007812 17.25828125 1.31640625 16.0390625 C1.18915064 13.08481099 1.18915064 13.08481099 0 11 C-0.66 11.99 -1.32 12.98 -2 14 C-2.33 11.36 -2.66 8.72 -3 6 C-2.34 6 -1.68 6 -1 6 C-0.67 4.02 -0.34 2.04 0 0 Z " fill="#65A49F" transform="translate(485,105)"/>
<path d="M0 0 C2.52078778 1.44643956 4.93698873 2.94293401 7 5 C7 5.99 7 6.98 7 8 C2.25 7.25 2.25 7.25 0 5 C-0.61875 4.87625 -1.2375 4.7525 -1.875 4.625 C-4.7157757 3.78947774 -6.04507731 2.16437869 -8 0 C-4.52931203 -1.15689599 -3.4505468 -1.09790125 0 0 Z " fill="#296D73" transform="translate(52,197)"/>
<path d="M0 0 C0.33 0 0.66 0 1 0 C1 9.24 1 18.48 1 28 C1.66 27.67 2.32 27.34 3 27 C2.34 29.64 1.68 32.28 1 35 C0.01 34.34 -0.98 33.68 -2 33 C-1.84660156 31.77410156 -1.69320312 30.54820312 -1.53515625 29.28515625 C-0.87540939 23.34743454 -0.65692263 17.40507601 -0.4375 11.4375 C-0.39431641 10.33341797 -0.35113281 9.22933594 -0.30664062 8.09179688 C-0.20155613 5.39462815 -0.09940587 2.69738297 0 0 Z " fill="#49948E" transform="translate(196,115)"/>
<path d="M0 0 C0 2.31 0 4.62 0 7 C-3.3 7 -6.6 7 -10 7 C-9.01 6.34 -8.02 5.68 -7 5 C-7.66 3.68 -8.32 2.36 -9 1 C-1.125 0 -1.125 0 0 0 Z " fill="#041E35" transform="translate(371,156)"/>
<path d="M0 0 C1.32 0.33 2.64 0.66 4 1 C3.60304363 2.62992692 3.18167507 4.25392235 2.75 5.875 C2.51796875 6.77992187 2.2859375 7.68484375 2.046875 8.6171875 C1 11 1 11 -1.109375 12.3203125 C-2.04523437 12.65675781 -2.04523437 12.65675781 -3 13 C-3.31563182 7.73946963 -2.66590937 4.55426184 0 0 Z M1 1 C2 3 2 3 2 3 Z " fill="#1C404D" transform="translate(20,85)"/>
<path d="M0 0 C0.33 0 0.66 0 1 0 C1 5.94 1 11.88 1 18 C2.65 17.67 4.3 17.34 6 17 C4.35 20.63 2.7 24.26 1 28 C0.67 28 0.34 28 0 28 C0 18.76 0 9.52 0 0 Z " fill="#115471" transform="translate(44,99)"/>
<path d="M0 0 C0.33 0.66 0.66 1.32 1 2 C2.64363134 2.72159424 4.31050386 3.39351421 6 4 C6 5.65 6 7.3 6 9 C4.02 9.99 4.02 9.99 2 11 C-1.03333922 7.96666078 -0.6646334 5.2256192 -1 1 C-0.67 0.67 -0.34 0.34 0 0 Z " fill="#011C36" transform="translate(229,112)"/>
<path d="M0 0 C0 2.31 0 4.62 0 7 C-1.98 7.66 -3.96 8.32 -6 9 C-6.144375 8.21625 -6.28875 7.4325 -6.4375 6.625 C-6.87798925 4.03578982 -6.87798925 4.03578982 -8 2 C-2.25 0 -2.25 0 0 0 Z " fill="#11293D" transform="translate(331,154)"/>
<path d="M0 0 C0.33 0.66 0.66 1.32 1 2 C1.99 2 2.98 2 4 2 C4 1.34 4 0.68 4 0 C4.99 0.33 5.98 0.66 7 1 C4.59231297 3.79163712 2.23853384 4.89717557 -1.1875 6.1875 C-2.08855469 6.53167969 -2.98960937 6.87585938 -3.91796875 7.23046875 C-4.60503906 7.48441406 -5.29210937 7.73835937 -6 8 C-6 7.34 -6 6.68 -6 6 C-5.01 6 -4.02 6 -3 6 C-3.99 4.68 -4.98 3.36 -6 2 C-2.25 0 -2.25 0 0 0 Z " fill="#5C9D99" transform="translate(147,206)"/>
<path d="M0 0 C2.76276177 0.52268466 5.3260876 1.10869587 8 2 C9.4477922 4.89558441 10 6.74188938 10 10 C9.01 10 8.02 10 7 10 C5.17578125 8.06640625 5.17578125 8.06640625 3.3125 5.5625 C2.68988281 4.73878906 2.06726563 3.91507812 1.42578125 3.06640625 C0 1 0 1 0 0 Z " fill="#3C998D" transform="translate(464,77)"/>
<path d="M0 0 C3.3 0 6.6 0 10 0 C9.34 1.32 8.68 2.64 8 4 C4.5 4.875 4.5 4.875 1 5 C0.34 4.34 -0.32 3.68 -1 3 C-0.67 2.01 -0.34 1.02 0 0 Z " fill="#337476" transform="translate(418,198)"/>
<path d="M0 0 C0.144375 0.598125 0.28875 1.19625 0.4375 1.8125 C0.8872439 3.56150404 1.42892341 5.28677023 2 7 C1.0625 9.1875 1.0625 9.1875 0 11 C-1.65 10.67 -3.3 10.34 -5 10 C-3.66511872 6.40608886 -2.03977277 3.24509304 0 0 Z " fill="#2E4E5C" transform="translate(25,75)"/>
<path d="M0 0 C0.33 0 0.66 0 1 0 C1 5.28 1 10.56 1 16 C0.67 16 0.34 16 0 16 C0 13.36 0 10.72 0 8 C-0.66 8 -1.32 8 -2 8 C-2.33 9.65 -2.66 11.3 -3 13 C-3.99 13 -4.98 13 -6 13 C-4.31326082 8.50202887 -2.18326108 4.27113698 0 0 Z " fill="#13546E" transform="translate(160,125)"/>
<path d="M0 0 C0.33 0 0.66 0 1 0 C1.60659385 6.5781733 1.14589981 10.89729998 -2.61328125 16.40625 C-4 18 -4 18 -7 20 C-6.71253906 19.45214844 -6.42507812 18.90429688 -6.12890625 18.33984375 C-4.89912572 15.79092147 -3.90726966 13.22107004 -2.9375 10.5625 C-2.42509766 9.17224609 -2.42509766 9.17224609 -1.90234375 7.75390625 C-1.05757758 5.17572379 -0.4698769 2.66909453 0 0 Z " fill="#59AFA3" transform="translate(103,70)"/>
<path d="M0 0 C8.415 1.485 8.415 1.485 17 3 C17 3.33 17 3.66 17 4 C13.37 4 9.74 4 6 4 C6 4.66 6 5.32 6 6 C3 6 3 6 1.3125 4.6875 C0 3 0 3 0 0 Z " fill="#367B78" transform="translate(81,212)"/>
<path d="M0 0 C4.69023454 0.56606279 9.34500026 1.18537505 14 2 C13 3.5625 13 3.5625 11 5 C8.23385218 4.96726452 5.73969453 4.49404328 3 4 C3 3.34 3 2.68 3 2 C2.01 2 1.02 2 0 2 C0 1.34 0 0.68 0 0 Z " fill="#469992" transform="translate(427,54)"/>
<path d="M0 0 C6.6 0 13.2 0 20 0 C19.67 0.66 19.34 1.32 19 2 C18.03578125 1.97679687 17.0715625 1.95359375 16.078125 1.9296875 C14.81484375 1.91164062 13.5515625 1.89359375 12.25 1.875 C10.37054688 1.84019531 10.37054688 1.84019531 8.453125 1.8046875 C5.26834981 1.98482184 3.57340633 2.18347788 1 4 C0.19471111 6.05000871 0.19471111 6.05000871 0 8 C-0.66 8 -1.32 8 -2 8 C-1.34 5.36 -0.68 2.72 0 0 Z " fill="#DEFCFB" transform="translate(413,144)"/>
<path d="M0 0 C3.44216672 2.6598561 3.99504674 5.90288286 5 10 C3.02 9.34 1.04 8.68 -1 8 C-1.33 6.02 -1.66 4.04 -2 2 C-1.34 2 -0.68 2 0 2 C0 1.34 0 0.68 0 0 Z " fill="#2C626A" transform="translate(24,165)"/>
<path d="M0 0 C-0.33 1.32 -0.66 2.64 -1 4 C-2.32 3.67 -3.64 3.34 -5 3 C-5 3.66 -5 4.32 -5 5 C-6.98 5.33 -8.96 5.66 -11 6 C-10.34 5.67 -9.68 5.34 -9 5 C-9 4.01 -9 3.02 -9 2 C-3.375 -1.125 -3.375 -1.125 0 0 Z " fill="#3D918A" transform="translate(156,203)"/>
<path d="M0 0 C0.33 0 0.66 0 1 0 C1.37010337 3.3309303 1.27461204 4.62731223 -0.75 7.375 C-3 9 -3 9 -5.25 8.75 C-6.11625 8.37875 -6.11625 8.37875 -7 8 C-5.1875 5 -5.1875 5 -3 2 C-2.01 2 -1.02 2 0 2 C0 1.34 0 0.68 0 0 Z " fill="#133849" transform="translate(40,58)"/>
<path d="M0 0 C0.33 0 0.66 0 1 0 C1 1.65 1 3.3 1 5 C2.98 5 4.96 5 7 5 C7.33 3.68 7.66 2.36 8 1 C8.66 1.33 9.32 1.66 10 2 C9.34 3.65 8.68 5.3 8 7 C5.03 7 2.06 7 -1 7 C-0.67 4.69 -0.34 2.38 0 0 Z " fill="#56A79A" transform="translate(400,157)"/>
<path d="M0 0 C1.32 0.99 2.64 1.98 4 3 C0.7 3.66 -2.6 4.32 -6 5 C-5.67 4.01 -5.34 3.02 -5 2 C-5.66 1.34 -6.32 0.68 -7 0 C-3.79780242 -1.06739919 -3.05137926 -1.10959246 0 0 Z " fill="#477F81" transform="translate(432,197)"/>
<path d="M0 0 C1.4540625 0.0309375 1.4540625 0.0309375 2.9375 0.0625 C0.6594796 3.47953059 -0.44622165 3.85901189 -4.1875 5.25 C-5.09757813 5.59417969 -6.00765625 5.93835938 -6.9453125 6.29296875 C-7.64398438 6.54691406 -8.34265625 6.80085937 -9.0625 7.0625 C-9.3925 6.4025 -9.7225 5.7425 -10.0625 5.0625 C-9.093125 4.423125 -8.12375 3.78375 -7.125 3.125 C-2.5625 0.05229592 -2.5625 0.05229592 0 0 Z " fill="#53AB9E" transform="translate(145.0625,189.9375)"/>
<path d="M0 0 C0.33 0 0.66 0 1 0 C0.5547115 5.27315333 -0.08373163 10.01770224 -2 15 C-2.33 14.01 -2.66 13.02 -3 12 C-2.67 11.34 -2.34 10.68 -2 10 C-3.32 10.33 -4.64 10.66 -6 11 C-5.67 9.02 -5.34 7.04 -5 5 C-4.67 5.99 -4.34 6.98 -4 8 C-3.01 8 -2.02 8 -1 8 C-0.67 5.36 -0.34 2.72 0 0 Z " fill="#599793" transform="translate(486,139)"/>
<path d="M0 0 C0.66 0 1.32 0 2 0 C2.21278058 4.46839215 1.59138085 7.82262526 0 12 C-0.66 11.67 -1.32 11.34 -2 11 C-2.28571429 3.57142857 -2.28571429 3.57142857 0 0 Z " fill="#1F4C58" transform="translate(14,131)"/>
<path d="M0 0 C0.33 0 0.66 0 1 0 C1.042721 1.66611905 1.04063832 3.33382885 1 5 C0.67 5.33 0.34 5.66 0 6 C-0.12375 7.0725 -0.2475 8.145 -0.375 9.25 C-0.98873013 12.9323808 -1.89293992 14.97682684 -4 18 C-5.59965305 14.80069389 -4.11812301 12.34237262 -3.125 9 C-2.57199219 7.1128125 -2.57199219 7.1128125 -2.0078125 5.1875 C-1 2 -1 2 0 0 Z " fill="#5BACA1" transform="translate(418,91)"/>
<path d="M0 0 C0.33 0 0.66 0 1 0 C1.72790099 7.74810168 0.35178114 12.56558074 -4 19 C-4.33 19 -4.66 19 -5 19 C-5.25 16.25 -5.25 16.25 -5 13 C-4.360625 12.401875 -3.72125 11.80375 -3.0625 11.1875 C0.03031951 7.90723688 -0.18662274 4.36697215 0 0 Z " fill="#354758" transform="translate(103,138)"/>
<path d="M0 0 C0.33 0 0.66 0 1 0 C0.48041715 4.37934119 -0.05675742 8.68803391 -1 13 C-1.99 13 -2.98 13 -4 13 C-4 11.35 -4 9.7 -4 8 C-3.34 8 -2.68 8 -2 8 C-1.7834375 6.576875 -1.7834375 6.576875 -1.5625 5.125 C-1 2 -1 2 0 0 Z " fill="#308C84" transform="translate(486,134)"/>
<path d="M0 0 C2.5 1.3125 2.5 1.3125 5 3 C5 3.99 5 4.98 5 6 C4.01 5.67 3.02 5.34 2 5 C2.33 5.99 2.66 6.98 3 8 C2.01 8 1.02 8 0 8 C-1.125 2.25 -1.125 2.25 0 0 Z " fill="#082035" transform="translate(322,114)"/>
<path d="M0 0 C1.45922693 0.11409593 2.91740598 0.24165544 4.375 0.375 C5.59316406 0.47941406 5.59316406 0.47941406 6.8359375 0.5859375 C9 1 9 1 11 3 C5.72 3 0.44 3 -5 3 C-5 2.67 -5 2.34 -5 2 C-3.35 2 -1.7 2 0 2 C0 1.34 0 0.68 0 0 Z " fill="#309288" transform="translate(415,51)"/>
<path d="M0 0 C0.66 0.33 1.32 0.66 2 1 C1.34 3.64 0.68 6.28 0 9 C-0.33 8.34 -0.66 7.68 -1 7 C-1.99 7 -2.98 7 -4 7 C-3.39816251 4.97954558 -2.72693904 2.97888961 -2 1 C-1.34 0.67 -0.68 0.34 0 0 Z " fill="#37867D" transform="translate(477,159)"/>
<path d="M0 0 C1.65 1.65 3.3 3.3 5 5 C4.34 6.65 3.68 8.3 3 10 C2.67 8.68 2.34 7.36 2 6 C1.34 6 0.68 6 0 6 C-0.33 6.99 -0.66 7.98 -1 9 C-2.60031344 5.79937313 -1.03173691 3.27728194 0 0 Z " fill="#48908A" transform="translate(193,148)"/>
<path d="M0 0 C3.63 0 7.26 0 11 0 C7.7895201 2.40785992 5.64991166 3.68197635 2 5 C1.34 3.35 0.68 1.7 0 0 Z " fill="#498785" transform="translate(442,191)"/>
<path d="M0 0 C2.34058637 2.12780579 3.70700306 4.11562221 5 7 C3.35 7.66 1.7 8.32 0 9 C-0.99 7.02 -1.98 5.04 -3 3 C-1.68 3.33 -0.36 3.66 1 4 C0.67 2.68 0.34 1.36 0 0 Z " fill="#457078" transform="translate(27,170)"/>
<path d="M0 0 C0 7 0 7 -1 10 C-3.475 9.01 -3.475 9.01 -6 8 C-4.26440562 4.942048 -2.61527381 2.36620011 0 0 Z " fill="#48A89C" transform="translate(109,161)"/>
<path d="M0 0 C0.66 0 1.32 0 2 0 C2.33 1.32 2.66 2.64 3 4 C4.98 4 6.96 4 9 4 C9.33 3.34 9.66 2.68 10 2 C10.33 3.32 10.66 4.64 11 6 C7.7 6 4.4 6 1 6 C0.67 4.02 0.34 2.04 0 0 Z " fill="#59A69B" transform="translate(436,158)"/>
<path d="M0 0 C0.33 0.66 0.66 1.32 1 2 C2.98 2 4.96 2 7 2 C6.34 3.32 5.68 4.64 5 6 C3 6 3 6 1.375 4.5 C0.92125 4.005 0.4675 3.51 0 3 C-0.33 3.99 -0.66 4.98 -1 6 C-1.66 6 -2.32 6 -3 6 C-1.125 1.125 -1.125 1.125 0 0 Z " fill="#162C3F" transform="translate(257,111)"/>
<path d="M0 0 C0 0.66 0 1.32 0 2 C-0.99 2 -1.98 2 -3 2 C-3.33 2.66 -3.66 3.32 -4 4 C-5.32 4 -6.64 4 -8 4 C-8 2.68 -8 1.36 -8 0 C-4.71023192 -1.09658936 -3.28696233 -0.79953138 0 0 Z " fill="#378E89" transform="translate(144,210)"/>
<path d="M0 0 C0 2.64 0 5.28 0 8 C-0.66 7.67 -1.32 7.34 -2 7 C-2.66 7.99 -3.32 8.98 -4 10 C-4 7.03 -4 4.06 -4 1 C-2 0 -2 0 0 0 Z " fill="#113B49" transform="translate(16,111)"/>
<path d="M0 0 C1.485 0.99 1.485 0.99 3 2 C3.29296875 4.1640625 3.29296875 4.1640625 3.1875 6.625 C3.16042969 7.44226563 3.13335937 8.25953125 3.10546875 9.1015625 C3.07066406 9.72804688 3.03585937 10.35453125 3 11 C2.67 10.34 2.34 9.68 2 9 C1.34 9 0.68 9 0 9 C0 6.03 0 3.06 0 0 Z " fill="#34938A" transform="translate(482,102)"/>
<path d="M0 0 C3.33557632 2.9905167 5.15083921 5.93184627 7 10 C6.34 10 5.68 10 5 10 C5 9.34 5 8.68 5 8 C4.34 8 3.68 8 3 8 C3 8.66 3 9.32 3 10 C2.34 10 1.68 10 1 10 C0.67 9.01 0.34 8.02 0 7 C0.66 7 1.32 7 2 7 C1.34 4.69 0.68 2.38 0 0 Z " fill="#64A7A0" transform="translate(472,80)"/>
<path d="M0 0 C0 0.99 0 1.98 0 3 C0.66 3.66 1.32 4.32 2 5 C1.01 5.99 0.02 6.98 -1 8 C-1 7.34 -1 6.68 -1 6 C-1.45375 6.495 -1.9075 6.99 -2.375 7.5 C-4 9 -4 9 -6 9 C-4.47291037 5.56404834 -2.40072955 2.88087546 0 0 Z " fill="#3C5561" transform="translate(34,63)"/>
<path d="M0 0 C3.3 0 6.6 0 10 0 C9.67 0.99 9.34 1.98 9 3 C6.36 3 3.72 3 1 3 C0.67 2.01 0.34 1.02 0 0 Z " fill="#20686C" transform="translate(410,200)"/>
<path d="M0 0 C-0.8125 1.9375 -0.8125 1.9375 -2 4 C-2.99 4.33 -3.98 4.66 -5 5 C-5.12375 4.360625 -5.2475 3.72125 -5.375 3.0625 C-5.684375 2.0415625 -5.684375 2.0415625 -6 1 C-6.66 0.67 -7.32 0.34 -8 0 C-4.71023192 -1.09658936 -3.28696233 -0.79953138 0 0 Z " fill="#397B79" transform="translate(445,193)"/>
<path d="M0 0 C-2 3 -2 3 -5.5 3.8125 C-6.655 3.874375 -7.81 3.93625 -9 4 C-9.66 3.34 -10.32 2.68 -11 2 C-6.89657963 -0.38570952 -4.61380251 -1.49270081 0 0 Z " fill="#307B76" transform="translate(455,188)"/>
<path d="M0 0 C0.99 0.99 1.98 1.98 3 3 C1.68221547 5.63556905 -0.14219898 7.72269553 -2 10 C-2.66 8.68 -3.32 7.36 -4 6 C-3.525625 5.566875 -3.05125 5.13375 -2.5625 4.6875 C-0.76313043 2.97690387 -0.76313043 2.97690387 0 0 Z " fill="#172E44" transform="translate(235,117)"/>
<path d="M0 0 C4.62 0 9.24 0 14 0 C14 0.33 14 0.66 14 1 C10.97265625 1.24414062 10.97265625 1.24414062 7.9453125 1.48828125 C5.60480784 1.87393036 5.60480784 1.87393036 4 5 C2.68 3.35 1.36 1.7 0 0 Z " fill="#EEFCFC" transform="translate(171,55)"/>
<path d="M0 0 C2.31 0.66 4.62 1.32 7 2 C6.01 3.485 6.01 3.485 5 5 C2.69 4.67 0.38 4.34 -2 4 C-1.34 3.67 -0.68 3.34 0 3 C0 2.01 0 1.02 0 0 Z " fill="#3B646D" transform="translate(133,34)"/>
<path d="M0 0 C0.66 0.33 1.32 0.66 2 1 C1.030625 1.61875 0.06125 2.2375 -0.9375 2.875 C-4.02835362 4.65678846 -4.02835362 4.65678846 -5 7 C-6.32 6.67 -7.64 6.34 -9 6 C-9 5.34 -9 4.68 -9 4 C-7.54618103 3.30300448 -6.08677047 2.61766134 -4.625 1.9375 C-3.40683594 1.36322266 -3.40683594 1.36322266 -2.1640625 0.77734375 C-1.44992188 0.52082031 -0.73578125 0.26429687 0 0 Z " fill="#D0F0EF" transform="translate(67,104)"/>
<path d="M0 0 C2.91517292 1.07401108 4.77810176 1.77810176 7 4 C5.576875 4.4640625 5.576875 4.4640625 4.125 4.9375 C1.13919592 5.87394742 1.13919592 5.87394742 -1 7 C-0.7525 6.1028125 -0.7525 6.1028125 -0.5 5.1875 C0.1114124 2.88655664 0.1114124 2.88655664 0 0 Z " fill="#14576F" transform="translate(53,107)"/>
<path d="M0 0 C3.50166718 0.64845688 6.09856846 1.93845653 9 4 C10.3125 6.1875 10.3125 6.1875 11 8 C7.22272911 6.18690997 3.62730178 4.0926741 0 2 C0 1.34 0 0.68 0 0 Z " fill="#50A798" transform="translate(89,56)"/>
<path d="M0 0 C0 0.66 0 1.32 0 2 C-0.99 2.33 -1.98 2.66 -3 3 C-3.33 3.66 -3.66 4.32 -4 5 C-6.64 5 -9.28 5 -12 5 C-9.9330412 2.9330412 -8.69369158 2.35542451 -6 1.375 C-5.29875 1.11460938 -4.5975 0.85421875 -3.875 0.5859375 C-2 0 -2 0 0 0 Z " fill="#435D68" transform="translate(79,34)"/>
<path d="M0 0 C0.226875 0.639375 0.45375 1.27875 0.6875 1.9375 C1.85250896 4.27193661 1.85250896 4.27193661 4.625 4.75 C5.40875 4.8325 6.1925 4.915 7 5 C7.33 5.99 7.66 6.98 8 8 C4.00499382 6.6302836 1.19990508 4.74277578 -2 2 C-1.34 2 -0.68 2 0 2 C0 1.34 0 0.68 0 0 Z M6 3 C6.66 3 7.32 3 8 3 C7.67 3.66 7.34 4.32 7 5 C6.67 4.34 6.34 3.68 6 3 Z " fill="#508386" transform="translate(52,200)"/>
<path d="M0 0 C0.33 0.66 0.66 1.32 1 2 C-3.30769231 7.78461538 -3.30769231 7.78461538 -6.8125 8.875 C-7.8953125 8.936875 -7.8953125 8.936875 -9 9 C-6 6 -3 3 0 0 Z " fill="#D8F5F3" transform="translate(100,86)"/>
<path d="M0 0 C1.67542976 0.28604898 3.34385343 0.61781233 5 1 C5.33 2.32 5.66 3.64 6 5 C3.625 4.6875 3.625 4.6875 1 4 C0.34 3.01 -0.32 2.02 -1 1 C-0.67 0.67 -0.34 0.34 0 0 Z " fill="#235C61" transform="translate(155,46)"/>
<path d="M0 0 C2.01822917 0.06510417 4.03645833 0.13020833 6.0546875 0.1953125 C4.9921875 1.7578125 4.9921875 1.7578125 3.0546875 3.1953125 C-0.6328125 2.8828125 -0.6328125 2.8828125 -3.9453125 2.1953125 C-1.9453125 0.1953125 -1.9453125 0.1953125 0 0 Z " fill="#0C3D4B" transform="translate(94.9453125,31.8046875)"/>
<path d="M0 0 C1.15866723 4.63466892 0.70010994 7.33260039 0 12 C-0.99 12.33 -1.98 12.66 -3 13 C-2.01 8.71 -1.02 4.42 0 0 Z " fill="#5BAEA1" transform="translate(409,123)"/>
<path d="M0 0 C3.96 1.98 3.96 1.98 8 4 C2.9375 5.6875 2.9375 5.6875 1 6 C0.34 5.34 -0.32 4.68 -1 4 C-0.67 2.68 -0.34 1.36 0 0 Z " fill="#4D767D" transform="translate(152,42)"/>
<path d="M0 0 C0.66 0 1.32 0 2 0 C2 2.31 2 4.62 2 7 C1.01 7 0.02 7 -1 7 C-2 4 -2 4 -1.0625 1.8125 C-0.5365625 0.9153125 -0.5365625 0.9153125 0 0 Z " fill="#213443" transform="translate(329,154)"/>
<path d="M0 0 C0 1.98 0 3.96 0 6 C-0.66 5.34 -1.32 4.68 -2 4 C-3.98356483 3.28591666 -5.98315437 2.61382258 -8 2 C-8 1.67 -8 1.34 -8 1 C-1.125 0 -1.125 0 0 0 Z " fill="#071A2A" transform="translate(371,156)"/>
<path d="M0 0 C0.99 0.33 1.98 0.66 3 1 C3.33 1.99 3.66 2.98 4 4 C2.5625 6.1875 2.5625 6.1875 1 8 C0.26919734 6.02253397 -0.39421747 4.01927511 -1 2 C-0.67 1.34 -0.34 0.68 0 0 Z " fill="#051F35" transform="translate(236,121)"/>
<path d="M0 0 C2.1519437 3.22791555 2.20086443 4.28400809 2 8 C1.67 6.68 1.34 5.36 1 4 C-0.32 4.33 -1.64 4.66 -3 5 C-3 3.68 -3 2.36 -3 1 C-2.01 0.67 -1.02 0.34 0 0 Z " fill="#456670" transform="translate(15,107)"/>
<path d="M0 0 C0.99 0 1.98 0 3 0 C3 0.66 3 1.32 3 2 C3.66 2 4.32 2 5 2 C5.33 1.34 5.66 0.68 6 0 C6.66 1.65 7.32 3.3 8 5 C6.68 4.34 5.36 3.68 4 3 C3.67 3.66 3.34 4.32 3 5 C2.01 3.35 1.02 1.7 0 0 Z " fill="#3C7478" transform="translate(179,71)"/>
<path d="M0 0 C1.98 0 3.96 0 6 0 C4.35 1.65 2.7 3.3 1 5 C0.34 4.67 -0.32 4.34 -1 4 C-0.67 2.68 -0.34 1.36 0 0 Z " fill="#163543" transform="translate(51,48)"/>
<path d="M0 0 C0.66 0.33 1.32 0.66 2 1 C1.34 2.98 0.68 4.96 0 7 C-0.99 6.67 -1.98 6.34 -3 6 C-1.125 1.125 -1.125 1.125 0 0 Z " fill="#327A7A" transform="translate(463,177)"/>
<path d="M0 0 C0.6875 1.8125 0.6875 1.8125 1 4 C-0.4375 5.75 -0.4375 5.75 -2 7 C-2.99 6.01 -3.98 5.02 -5 4 C-4.0409375 3.8453125 -4.0409375 3.8453125 -3.0625 3.6875 C-2.381875 3.460625 -1.70125 3.23375 -1 3 C-0.67 2.01 -0.34 1.02 0 0 Z " fill="#0D243A" transform="translate(234,116)"/>
<path d="M0 0 C2.4375 0.75 2.4375 0.75 5 2 C5.8125 4.125 5.8125 4.125 6 6 C3 6 3 6 1.3125 4.6875 C0 3 0 3 0 0 Z " fill="#276C71" transform="translate(183,74)"/>
<path d="M0 0 C0.33 1.32 0.66 2.64 1 4 C-1.86177057 5.43088528 -3.93375773 4.59991697 -7 4 C-2.25 0 -2.25 0 0 0 Z " fill="#375462" transform="translate(58,44)"/>
<path d="M0 0 C1.5 1.1875 1.5 1.1875 3 3 C3.1875 5.6875 3.1875 5.6875 3 8 C0.47411298 5.63707344 -0.88820837 4.33537489 -2 1 C-1.34 0.67 -0.68 0.34 0 0 Z " fill="#3C6E72" transform="translate(30,178)"/>
<path d="M0 0 C2.475 0.99 2.475 0.99 5 2 C4.67 3.32 4.34 4.64 4 6 C3.34 6 2.68 6 2 6 C2 5.01 2 4.02 2 3 C1.01 2.67 0.02 2.34 -1 2 C-0.67 1.34 -0.34 0.68 0 0 Z " fill="#001C34" transform="translate(242,130)"/>
<path d="M0 0 C0.99 0.33 1.98 0.66 3 1 C3.33 1.99 3.66 2.98 4 4 C3.34 4.66 2.68 5.32 2 6 C1.01 5.34 0.02 4.68 -1 4 C-0.67 2.68 -0.34 1.36 0 0 Z " fill="#051F37" transform="translate(257,114)"/>
<path d="M0 0 C-1.57067171 1.80627247 -2.79299586 2.90943569 -5 3.875 C-7 4 -7 4 -8.75 2.5625 C-9.1625 2.046875 -9.575 1.53125 -10 1 C-6.59437148 0.22157062 -3.49234244 -0.09978121 0 0 Z " fill="#4DA5A0" transform="translate(64,105)"/>
<path d="M0 0 C0.33 0.66 0.66 1.32 1 2 C1.99 2.33 2.98 2.66 4 3 C2.68 3.99 1.36 4.98 0 6 C-0.33 5.34 -0.66 4.68 -1 4 C-1.66 4 -2.32 4 -3 4 C-2.67 3.01 -2.34 2.02 -2 1 C-1.34 0.67 -0.68 0.34 0 0 Z " fill="#3C5967" transform="translate(41,56)"/>
<path d="M0 0 C2.64 0.33 5.28 0.66 8 1 C8 1.66 8 2.32 8 3 C5.36 2.67 2.72 2.34 0 2 C0 1.34 0 0.68 0 0 Z " fill="#2E978B" transform="translate(427,54)"/>
<path d="M0 0 C-1.25 1.5 -1.25 1.5 -3 3 C-4.32 3 -5.64 3 -7 3 C-7 2.01 -7 1.02 -7 0 C-3.98968256 -0.93423645 -3.13349732 -1.04449911 0 0 Z " fill="#12374A" transform="translate(49,55)"/>
<path d="M0 0 C-0.33 0.99 -0.66 1.98 -1 3 C-1.99 3 -2.98 3 -4 3 C-4.33 3.66 -4.66 4.32 -5 5 C-6.32 4.67 -7.64 4.34 -9 4 C-2.25 0 -2.25 0 0 0 Z " fill="#3F5B67" transform="translate(67,39)"/>
<path d="M0 0 C-2.1385485 2.1385485 -3.13275314 2.42655063 -6 3 C-6.66 2.01 -7.32 1.02 -8 0 C-4.71023192 -1.09658936 -3.28696233 -0.79953138 0 0 Z " fill="#41787C" transform="translate(52,197)"/>
<path d="M0 0 C2.0625 0.1875 2.0625 0.1875 4 1 C4.33 1.99 4.66 2.98 5 4 C4.01 4.66 3.02 5.32 2 6 C2 5.01 2 4.02 2 3 C0.68 2.67 -0.64 2.34 -2 2 C-1.34 1.34 -0.68 0.68 0 0 Z " fill="#4A9890" transform="translate(174,184)"/>
<path d="M0 0 C0.66 0.99 1.32 1.98 2 3 C0.89131683 5.21736634 -0.49440461 7.03617993 -2 9 C-2.33 7.35 -2.66 5.7 -3 4 C-2.34 3.67 -1.68 3.34 -1 3 C-0.67 2.01 -0.34 1.02 0 0 Z " fill="#4A7076" transform="translate(19,151)"/>
<path d="M0 0 C0.33 0 0.66 0 1 0 C1.33 2.64 1.66 5.28 2 8 C1.01 8.33 0.02 8.66 -1 9 C-0.67 6.03 -0.34 3.06 0 0 Z " fill="#31555F" transform="translate(16,93)"/>
<path d="M0 0 C1.32 0 2.64 0 4 0 C4 0.66 4 1.32 4 2 C4.66 2 5.32 2 6 2 C6 3.32 6 4.64 6 6 C5.34 6 4.68 6 4 6 C4 5.01 4 4.02 4 3 C2.68 2.34 1.36 1.68 0 1 C0 0.67 0 0.34 0 0 Z " fill="#369C8E" transform="translate(452,65)"/>
<path d="" fill="#FDFDFD" transform="translate(0,0)"/>
</svg>
